<svg xmlns="http://www.w3.org/2000/svg" xmlns:xlink="http://www.w3.org/1999/xlink" width="250" height="50" viewBox="0 0 250 50">
    <defs>
        <path id="prefix__a" d="M0 0.07L48.973 0.07 48.973 49.874 0 49.874z"/>
        <path id="prefix__c" d="M0 49.93L249.973 49.93 249.973 0.126 0 0.126z"/>
    </defs>
    <g fill="none" fill-rule="evenodd">
        <path fill="#ffffff" d="M51.825 23.33c0 2.75-2.23 4.982-4.982 4.982-2.75 0-4.98-2.232-4.98-4.983 0-2.75 2.23-4.982 4.98-4.982 2.751 0 4.982 2.232 4.982 4.982"/>
        <path fill="#ffffff" d="M56.382 20.857c-.06.094-.121.186-.179.28l-.001-.001c.059-.094.119-.185.18-.279"/>
        <path fill="#FFF" d="M56.382 20.857c-.06.094-.121.186-.179.28l-.001-.001c.059-.094.119-.185.18-.279"/>
        <path fill="#ffffff" d="M68.275 2.142c-.695 1.11-10.003 15.75-10.898 17.154-.207.326-.41.64-.608.955l-.387.605c-.972-3.759-4.108-6.65-8.002-7.26.177-.279 5.638-8.918 7.018-11.112.156-.253.296-.44.645-.438 4.017.013 8.03.013 12.047.016.036 0 .074.03.185.08"/>
        <path fill="#ffffff" d="M70.598 44.588c-2.01 2.386-4.275 4.07-7.153 4.747-3.952.929-7.72.508-11.093-1.935-2.455-1.774-3.95-4.257-5.037-7.02-.032-.081-.07-.178-.113-.294-.008-.022-.019-.045-.026-.069-.281-.74-.769-2.08-1.247-3.527-.389-1.182-.768-2.437-1.022-3.5.627.126 1.275.19 1.938.19 2.925 0 5.555-1.277 7.355-3.301l.022-.022c.663 1.642 1.351 4.22 2.006 6.222l.006.016c.179.547.353 1.052.529 1.483.726 1.814 1.498 3.588 2.956 4.936.097.089.199.176.302.262 1.9 1.574 4.172 1.984 6.544 2.061 1.288.043 2.566-.134 4.033-.25"/>
        <g transform="translate(0 .055)">
            <mask id="prefix__b" fill="#fff">
                <use xlink:href="#prefix__a"/>
            </mask>
            <path fill="#ffffff" d="M38.509 28.53c-2.334 3.265-4.867 6.371-7.844 9.126-2.51 2.32-5.184 4.396-8.41 5.648-1.23.48-2.505.742-3.83.73-3.746.009-6.436-2.338-7.232-6.26-.707-3.485-.35-6.918.628-10.277 1.811-6.222 4.993-11.723 9.214-16.613 1.91-2.212 4.103-4.113 6.968-5.024 2.024-.643 4.063-.825 6.042.19 1.526.785 2.588 2.05 3.436 3.498 1.208 2.057 1.956 4.289 2.604 6.56 1.763-1.666 4.141-2.686 6.76-2.686.521 0 1.035.042 1.535.12l.593-.935c-.45-1.035-.83-1.975-1.26-2.89-1.339-2.852-3.17-5.318-5.807-7.098C38.776.508 35.302-.17 31.57.143c-4.755.396-9.191 1.78-13.245 4.282-6.44 3.982-11.497 9.31-15.045 16.005C1.005 24.715-.303 29.278.06 34.189c.47 6.335 3.662 10.866 9.34 13.636 4.417 2.156 9.118 2.35 13.882 1.765 3.958-.486 7.69-1.786 11.13-3.777 4.176-2.416 7.794-5.565 11.164-8.998.116-.12.19-.297.354-.38-.39-1.183-.768-2.437-1.02-3.5-2.69-.535-4.984-2.165-6.401-4.405" mask="url(#prefix__b)"/>
        </g>
        <path fill="#ffffff" d="M91.376 25.88l-3.604-8.355-3.577 8.355h7.18zm1.174 2.784h-9.556l-1.884 4.424H77.45l8.6-19.112h3.495l8.628 19.112h-3.713l-1.911-4.424z"/>
        <mask id="prefix__d" fill="#fff">
            <use xlink:href="#prefix__c"/>
        </mask>
        <path fill="#ffffff" d="M100.276 33.088L103.689 33.088 103.689 12.829 100.276 12.829zM120.179 25.798c0-2.785-1.857-4.56-4.314-4.56s-4.341 1.775-4.341 4.56c0 2.785 1.884 4.56 4.341 4.56 2.457 0 4.314-1.775 4.314-4.56m3.467 0c0 4.532-3.14 7.48-7.399 7.48-1.856 0-3.494-.627-4.668-1.965v7.071h-3.413V18.508h3.249v1.91c1.147-1.391 2.84-2.074 4.832-2.074 4.26 0 7.4 2.949 7.4 7.454M141.256 24.733v8.355h-3.413V25.17c0-2.594-1.283-3.85-3.467-3.85-2.43 0-4.068 1.474-4.068 4.396v7.372h-3.413v-20.26h3.413v7.373c1.12-1.202 2.84-1.857 4.86-1.857 3.495 0 6.088 1.993 6.088 6.389M154.389 28.528v-1.693h-3.522c-2.321 0-2.95.874-2.95 1.939 0 1.228 1.038 2.02 2.786 2.02 1.665 0 3.112-.764 3.686-2.266m3.412-3.986v8.546h-3.221v-1.775c-.82 1.256-2.403 1.966-4.587 1.966-3.331 0-5.433-1.83-5.433-4.369 0-2.43 1.638-4.341 6.06-4.341h3.769v-.218c0-1.994-1.202-3.168-3.632-3.168-1.638 0-3.33.547-4.423 1.448l-1.338-2.485c1.557-1.201 3.823-1.802 6.17-1.802 4.206 0 6.635 1.993 6.635 6.198M189.936 13.975L183.602 33.088 179.834 33.088 175.111 18.945 170.306 33.088 166.511 33.088 160.176 13.975 163.862 13.975 168.613 28.501 173.555 13.975 176.831 13.975 181.664 28.583 186.551 13.975zM201.185 28.528v-1.693h-3.522c-2.321 0-2.95.874-2.95 1.939 0 1.228 1.038 2.02 2.786 2.02 1.665 0 3.112-.764 3.686-2.266m3.413-3.986v8.546h-3.222v-1.775c-.82 1.256-2.403 1.966-4.587 1.966-3.331 0-5.433-1.83-5.433-4.369 0-2.43 1.638-4.341 6.06-4.341h3.769v-.218c0-1.994-1.202-3.168-3.632-3.168-1.638 0-3.33.547-4.423 1.448l-1.337-2.485c1.556-1.201 3.822-1.802 6.17-1.802 4.205 0 6.635 1.993 6.635 6.198M208.447 33.088L211.86 33.088 211.86 12.829 208.447 12.829zM216.337 33.088L219.75 33.088 219.75 12.829 216.337 12.829zM226.411 24.624h8.273c-.273-2.103-1.884-3.55-4.123-3.55-2.211 0-3.822 1.42-4.15 3.55m11.467 2.266h-11.44c.41 2.13 2.185 3.495 4.724 3.495 1.638 0 2.921-.52 3.959-1.584l1.83 2.102c-1.312 1.557-3.36 2.376-5.871 2.376-4.887 0-8.054-3.14-8.054-7.481 0-4.341 3.194-7.454 7.535-7.454 4.26 0 7.372 2.976 7.372 7.536 0 .273-.027.682-.055 1.01M249.973 32.296c-.819.655-2.048.983-3.276.983-3.195 0-5.024-1.693-5.024-4.915v-7.017h-2.403v-2.73h2.403v-3.33h3.413v3.33h3.904v2.73h-3.904v6.935c0 1.42.71 2.184 2.02 2.184.71 0 1.393-.19 1.912-.6l.955 2.43z" mask="url(#prefix__d)"/>
    </g>
</svg>