<svg width="28" height="28" xmlns="http://www.w3.org/2000/svg">
    <g fill="#4DA322" fill-rule="evenodd">
        <path d="M13.963.81C6.6.81.63 6.78.63 14.143c0 7.364 5.97 13.333 13.333 13.333 7.364 0 13.334-5.969 13.334-13.333C27.287 6.783 21.323.82 13.963.81zm0 24.242c-6.025 0-10.909-4.884-10.909-10.909S7.938 3.234 13.964 3.234c6.024 0 10.908 4.884 10.908 10.91-.006 6.021-4.887 10.902-10.909 10.908z"/>
        <path d="m17.93 10.242-5.196 5.197-2.776-2.776a1.21 1.21 0 1 0-1.711 1.712l3.631 3.631a1.21 1.21 0 0 0 1.712 0l6.052-6.052a1.21 1.21 0 0 0-1.712-1.712z"/>
    </g>
</svg>
