<svg width="163" height="81" xmlns="http://www.w3.org/2000/svg" xmlns:xlink="http://www.w3.org/1999/xlink">
    <defs>
        <path id="a" d="M0 0h19.144v32.756H0z"/>
        <path id="c" d="M0 80h162.42V0H0z"/>
    </defs>
    <g transform="translate(.008 .99)" fill="none" fill-rule="evenodd">
        <path d="M96.28 7.2h4.224c.15 0 .29.07.41.21.12.14.179.28.179.44v26.683h7.58c.43 0 .639.22.639.64v4.223c0 .4-.22.6-.64.6H96.27c-.15 0-.3-.06-.44-.18a.535.535 0 0 1-.209-.41V7.85c0-.15.07-.3.21-.44.15-.14.3-.209.45-.209zM125.36 40.006c-.43 0-.639-.2-.639-.6V7.85c0-.4.21-.599.64-.599h4.183c.43 0 .64.2.64.6v31.557c0 .4-.22.599-.64.599h-4.184zM145.523 40.006a.47.47 0 0 1-.46-.16.654.654 0 0 1-.18-.44v-4.223c0-.37.22-.58.64-.64.669-.09 1.298-.29 1.887-.599a5.91 5.91 0 0 0 1.538-1.169c.44-.469.79-1.028 1.029-1.657.25-.63.37-1.298.37-1.998V18.185c0-1.468.27-2.846.798-4.134a11.255 11.255 0 0 1 2.187-3.395 10.796 10.796 0 0 1 3.266-2.367c1.258-.6 2.606-.94 4.044-1.039.43 0 .64.2.64.6v4.224c0 .15-.06.3-.18.439-.12.14-.28.21-.46.21-1.378.15-2.526.738-3.445 1.767s-1.378 2.257-1.378 3.695V29.12c0 1.438-.27 2.807-.81 4.085a11.226 11.226 0 0 1-2.176 3.395 10.803 10.803 0 0 1-3.266 2.367c-1.258.6-2.606.939-4.044 1.038zM112.957 45.968c.43.06.64.29.64.689v4.314c0 .18-.06.33-.18.44-.12.11-.26.13-.41.07-.34-.06-.69-.11-1.059-.14-.369-.03-.739-.05-1.098-.05-1.498 0-2.906.279-4.225.848a10.902 10.902 0 0 0-3.465 2.347 10.928 10.928 0 0 0-2.347 3.495c-.569 1.328-.848 2.747-.848 4.244 0 1.498.28 2.917.848 4.255a10.686 10.686 0 0 0 2.347 3.465 11.727 11.727 0 0 0 3.465 2.347c1.319.579 2.727.868 4.225.868.669 0 1.388-.08 2.157-.23.4-.06.6.11.6.51v4.315c0 .15-.06.31-.18.459-.12.15-.28.25-.46.28l-1.029.09c-.35.03-.709.05-1.078.05-2.267 0-4.394-.43-6.382-1.29-1.987-.858-3.725-2.027-5.193-3.514a16.898 16.898 0 0 1-3.495-5.213c-.859-1.988-1.288-4.115-1.288-6.382 0-2.267.43-4.394 1.288-6.381.86-1.987 2.017-3.725 3.495-5.213 1.468-1.488 3.196-2.657 5.193-3.515 1.988-.86 4.115-1.289 6.382-1.289.689-.01 1.388.03 2.097.13zM128.206 62.226c.769 0 1.478-.15 2.137-.44a5.575 5.575 0 0 0 2.887-2.886c.29-.659.439-1.368.439-2.137 0-.769-.15-1.478-.44-2.137a5.574 5.574 0 0 0-1.168-1.718 5.695 5.695 0 0 0-1.718-1.168 5.245 5.245 0 0 0-2.137-.44c-.768 0-1.478.15-2.137.44a5.62 5.62 0 0 0-1.728 1.168 5.695 5.695 0 0 0-1.168 1.718 5.243 5.243 0 0 0-.44 2.137c0 .769.14 1.478.44 2.137.29.66.68 1.229 1.168 1.718.49.49 1.059.878 1.728 1.168.66.29 1.368.44 2.137.44m8.639 16.397h-17.277c-.43 0-.64-.21-.64-.639V73.8c0-.43.21-.639.64-.639h17.277c.43 0 .639.22.639.64v4.183c0 .43-.21.64-.64.64m-8.638-33.026c1.498 0 2.916.29 4.244.869a10.8 10.8 0 0 1 3.466 2.387c.979 1.008 1.758 2.197 2.347 3.565.579 1.358.869 2.806.869 4.344 0 1.528-.29 2.976-.87 4.344-.579 1.358-1.357 2.547-2.346 3.555a10.794 10.794 0 0 1-3.466 2.387c-1.328.58-2.746.87-4.244.87-1.498 0-2.916-.29-4.254-.87a10.794 10.794 0 0 1-3.465-2.387c-.979-1.008-1.758-2.197-2.347-3.555a10.959 10.959 0 0 1-.87-4.344c0-1.528.29-2.976.87-4.344a11.591 11.591 0 0 1 2.347-3.565 10.8 10.8 0 0 1 3.465-2.387 10.595 10.595 0 0 1 4.254-.869" fill="#025099"/>
        <g transform="translate(143.276 45.858)">
            <mask id="b" fill="#fff">
                <use xlink:href="#a"/>
            </mask>
            <path d="M.64.01h4.224c.37 0 .719.14 1.058.41l7.76 8.079v-7.9c0-.4.2-.599.599-.599h4.224c.43 0 .64.2.64.6v31.556c0 .4-.21.6-.64.6h-4.224c-.4 0-.6-.2-.6-.6V16.398L5.464 7.849v24.297c0 .4-.2.6-.6.6H.64c-.43 0-.639-.2-.639-.6V.59C-.01.21.21.01.64.01z" fill="#025099" mask="url(#b)"/>
        </g>
        <mask id="d" fill="#fff">
            <use xlink:href="#c"/>
        </mask>
        <path d="M2.378 77.627h75.244V2.377H2.378v75.25zM78.814 0H1.186C.527 0 0 .527 0 1.186v77.628C0 79.473.527 80 1.186 80h77.628c.659 0 1.186-.527 1.186-1.186V1.186C80 .527 79.473 0 78.814 0z" fill="#025099" mask="url(#d)"/>
        <path d="M72.222 30.949a1.188 1.188 0 0 1-1.187 1.186c-.309 0-.609-.118-.84-.35L47.823 9.42a1.214 1.214 0 0 1-.26-1.3 1.187 1.187 0 0 1 1.1-.727h22.371c.66 0 1.187.527 1.187 1.186V30.95zm-8.187 8.605 3.486-3.49 3.492 3.49-3.492 3.487-3.486-3.487zm8.187 30.99c0 .66-.527 1.187-1.187 1.187h-22.37c-.482 0-.919-.287-1.1-.727-.178-.45-.078-.96.259-1.3l22.37-22.367c.341-.34.85-.45 1.3-.259.437.177.728.618.728 1.096v22.37zm-31.617 4.033-3.492-3.492 3.492-3.486 3.486 3.486-3.486 3.492zm-7.751-3.573c-.178.44-.61.727-1.096.727H9.388c-.66 0-1.192-.527-1.192-1.187v-22.37c0-.478.291-.919.732-1.096.441-.19.96-.082 1.296.26l22.37 22.37c.342.336.442.845.26 1.296zM16.352 39.55l-3.487 3.487-3.487-3.487 3.487-3.491 3.487 3.49zM8.196 8.578c0-.659.532-1.186 1.191-1.186h22.371c.477 0 .918.286 1.096.727.182.45.082.96-.26 1.3l-22.37 22.366c-.218.232-.527.35-.837.35a1.185 1.185 0 0 1-1.191-1.186V8.579zm48.32 36.173-14.92 21.388a1.2 1.2 0 0 1-.982.51 1.18 1.18 0 0 1-.978-.51L24.707 44.751a1.187 1.187 0 0 1 .11-1.492c.377-.409 1-.495 1.477-.209l14.32 8.529 14.32-8.529c.481-.286 1.1-.2 1.468.21.39.409.432 1.031.114 1.49zm.045-7.47c.032.05.064.1.082.15.009.028.018.06.032.087.018.04.027.09.036.132a.243.243 0 0 1 .014.1c0 .05.009.086.036.118 0 .04-.01.068-.01.109-.008.05-.008.091-.017.132v.018c0 .032-.023.073-.032.1-.01.041-.018.068-.027.1-.014 0-.014.01-.014.01-.036.1-.095.19-.16.272-.008.018-.026.036-.05.059-.058.068-.126.127-.2.177-.008.014-.026.023-.036.032l-.013.01-14.92 9.287c-.01 0-.018 0-.027.009-.082.04-.16.072-.241.1-.018.013-.05.013-.068.022-.091.019-.191.041-.291.041-.1 0-.2-.022-.291-.04a.135.135 0 0 1-.069-.023.816.816 0 0 1-.24-.1c-.01 0-.019 0-.028-.01l-14.933-9.287-.01-.009c-.027-.032-.068-.05-.1-.082-.027-.027-.05-.05-.077-.068-.031-.032-.05-.059-.081-.09-.028-.028-.06-.06-.078-.092-.022-.018-.032-.045-.05-.077-.032-.04-.05-.082-.072-.118-.01 0-.01-.014-.01-.014-.018-.027-.018-.059-.031-.086a.55.55 0 0 1-.037-.114v-.018a.446.446 0 0 1-.022-.132c0-.027-.01-.068-.01-.095 0-.041.01-.091.01-.132 0-.032 0-.068.009-.1.013-.05.031-.091.04-.132.01-.036.023-.068.032-.1.01-.036.041-.077.06-.118.018-.027.018-.06.04-.077L39.554 14.11c.223-.341.6-.55 1-.55h.069c.54 0 1 .381 1.14.882l14.77 22.775v.014c.01.009.019.027.028.05zM40.605 5.083l3.486 3.492-3.486 3.486-3.492-3.486 3.492-3.492zM2.378 77.627h75.244V2.377H2.378v75.25z" fill="#FAFAF0" mask="url(#d)"/>
        <path d="M41.814 45.028V33.454l11.142 4.632-11.142 6.942zm0-26.144 10.656 16.43-10.656-4.438V18.884zm-2.378 11.992L28.75 35.313l10.687-16.63v12.193zm0 14.152L28.29 38.086l11.146-4.632v11.574zm17.289-7.278c0-.032 0-.073-.014-.1-.01-.041-.018-.091-.036-.132-.014-.027-.023-.06-.032-.086a.815.815 0 0 0-.082-.15.163.163 0 0 0-.027-.05v-.014l-14.77-22.775c-.141-.5-.6-.882-1.141-.882h-.068c-.4 0-.778.209-1 .55L24.706 37.23c-.022.019-.022.05-.04.078-.019.04-.05.082-.06.118-.009.032-.022.064-.031.1-.01.04-.028.082-.041.132-.01.032-.01.068-.01.1 0 .04-.009.09-.009.132 0 .027.01.068.01.095 0 .041.009.091.022.132v.018a.55.55 0 0 0 .037.114c.013.027.013.059.031.086 0 0 0 .014.01.014.022.036.04.077.072.118.018.032.028.06.05.077.018.032.05.064.078.091.031.032.05.06.081.091a.52.52 0 0 1 .078.068c.031.032.072.05.1.082l.009.01 14.933 9.287c.01.009.018.009.028.009.072.04.15.082.24.1.019.013.05.022.069.022.09.019.19.041.29.041.1 0 .2-.022.292-.04.018-.01.05-.01.068-.023.082-.028.159-.06.24-.1.01-.01.019-.01.028-.01l14.92-9.287.013-.009c.01-.009.028-.018.037-.032.073-.05.14-.109.2-.177.023-.023.04-.04.05-.06.064-.08.123-.172.159-.272 0 0 0-.009.014-.009.009-.032.018-.059.027-.1.009-.027.032-.068.032-.1v-.018c.009-.041.009-.082.018-.132 0-.04.009-.068.009-.11-.027-.03-.036-.067-.036-.117z" fill="#025099" mask="url(#d)"/>
        <path fill="#D0E4EB" mask="url(#d)" d="M39.436 33.454v11.574L28.29 38.086zM52.956 38.086l-11.142 6.942V33.454zM52.47 35.313l-10.656-4.437V18.884zM39.436 18.684v12.192L28.75 35.313z"/>
        <path d="M41.814 61.684v-8.037l9.605-5.723-9.605 13.76zm-2.378 0-9.605-13.76 9.605 5.723v8.037zM56.402 43.26a1.173 1.173 0 0 0-1.468-.209l-14.32 8.529-14.32-8.529c-.477-.286-1.1-.2-1.478.21a1.187 1.187 0 0 0-.109 1.49l14.93 21.39c.218.322.59.508.977.508a1.2 1.2 0 0 0 .982-.509l14.92-21.388a1.182 1.182 0 0 0-.114-1.492z" fill="#025099" mask="url(#d)"/>
        <path fill="#D0E4EB" mask="url(#d)" d="m51.42 47.924-9.606 13.76v-8.037zM39.436 53.647v8.037l-9.605-13.76z"/>
        <path fill="#F4BD03" mask="url(#d)" d="m44.091 71.085-3.486 3.492-3.492-3.492 3.492-3.486zM44.091 8.574l-3.486 3.486-3.492-3.486 3.492-3.492zM16.352 39.55l-3.487 3.487-3.487-3.487 3.487-3.491zM71.013 39.554l-3.492 3.487-3.486-3.487 3.486-3.49z"/>
        <path d="M10.574 28.08V9.765H28.89L10.574 28.08zm22.28-19.96a1.18 1.18 0 0 0-1.096-.728H9.388c-.66 0-1.192.527-1.192 1.186V30.95a1.185 1.185 0 0 0 1.191 1.186c.31 0 .619-.118.837-.35L32.594 9.42c.342-.34.442-.85.26-1.3z" fill="#025099" mask="url(#d)"/>
        <path fill="#FAFAF0" mask="url(#d)" d="M28.89 9.765 10.574 28.08V9.765z"/>
        <path d="M69.853 28.08 51.543 9.765h18.31V28.08zm1.182-20.688h-22.37c-.482 0-.919.286-1.1.727-.178.45-.078.96.259 1.3l22.37 22.366c.232.232.532.35.841.35.16 0 .31-.027.46-.09.436-.178.727-.619.727-1.096V8.579c0-.66-.527-1.187-1.187-1.187z" fill="#025099" mask="url(#d)"/>
        <path fill="#FAFAF0" mask="url(#d)" d="M69.853 9.765V28.08L51.543 9.765z"/>
        <path d="M69.853 69.358h-18.31l18.31-18.316v18.316zm1.641-22.28a1.18 1.18 0 0 0-1.3.26l-22.37 22.365c-.337.341-.437.85-.26 1.3.182.441.619.728 1.1.728h22.371c.66 0 1.187-.527 1.187-1.187v-22.37c0-.478-.291-.919-.728-1.096z" fill="#025099" mask="url(#d)"/>
        <path fill="#FAFAF0" mask="url(#d)" d="M69.853 51.042v18.316h-18.31z"/>
        <path d="M10.574 69.358V51.042L28.89 69.358H10.574zm22.02.35-22.37-22.37a1.175 1.175 0 0 0-1.296-.26 1.185 1.185 0 0 0-.732 1.096v22.37c0 .66.532 1.187 1.191 1.187h22.371c.487 0 .918-.287 1.096-.727.182-.45.082-.96-.26-1.296z" fill="#025099" mask="url(#d)"/>
        <path fill="#FAFAF0" mask="url(#d)" d="M28.89 69.358H10.574V51.042z"/>
    </g>
</svg>
