<svg width="480" height="221" xmlns="http://www.w3.org/2000/svg" xmlns:xlink="http://www.w3.org/1999/xlink">
    <defs>
        <path id="a" d="M0 0h19.61v33.598H0z"/>
        <path id="c" d="M0 82.059h166.368V0H0z"/>
    </defs>
    <g fill="none" fill-rule="evenodd">
        <path d="M445 111.5c0 18.29 14.1 33.35 32 34.87V189c0 15.99-13.01 29-29 29H32c-15.99 0-29-13.01-29-29v-42.63c17.9-1.52 32-16.58 32-34.87S20.9 78.15 3 76.63V32C3 16.01 16.01 3 32 3h416c15.99 0 29 13.01 29 29v44.63c-17.9 1.52-32 16.58-32 34.87m35-32V32c0-17.67-14.33-32-32-32H32C14.33 0 0 14.33 0 32v47.5c17.67 0 32 14.33 32 32s-14.33 32-32 32V189c0 17.67 14.33 32 32 32h416c17.67 0 32-14.33 32-32v-45.5c-17.67 0-32-14.33-32-32s14.33-32 32-32" fill="#005198"/>
        <path d="M445 111.5c0 18.29 14.1 33.35 32 34.87V189c0 15.99-13.01 29-29 29H32c-15.99 0-29-13.01-29-29v-42.63c17.9-1.52 32-16.58 32-34.87S20.9 78.15 3 76.63V32C3 16.01 16.01 3 32 3h416c15.99 0 29 13.01 29 29v44.63c-17.9 1.52-32 16.58-32 34.87" fill="#F9F9EF"/>
        <g transform="translate(83.036 42)">
            <path d="M98.62 7.385h4.327c.153 0 .296.072.42.215a.672.672 0 0 1 .183.451v27.37h7.764c.44 0 .655.226.655.656v4.333c0 .41-.225.615-.655.615H98.61a.691.691 0 0 1-.45-.185.549.549 0 0 1-.214-.42V8.05c0-.153.071-.307.214-.45.154-.143.307-.215.46-.215zM128.407 41.035c-.44 0-.654-.204-.654-.614V8.05c0-.41.214-.614.654-.614h4.286c.44 0 .655.205.655.614v32.37c0 .41-.225.614-.655.614h-4.286zM149.06 41.035a.482.482 0 0 1-.47-.164.671.671 0 0 1-.185-.45v-4.333c0-.38.225-.594.655-.656a5.774 5.774 0 0 0 1.933-.614 6.055 6.055 0 0 0 1.576-1.2 5.165 5.165 0 0 0 1.054-1.7A5.522 5.522 0 0 0 154 29.87V18.653c0-1.506.276-2.919.818-4.24.552-1.322 1.3-2.48 2.24-3.483a11.059 11.059 0 0 1 3.345-2.428c1.29-.615 2.67-.963 4.143-1.065.44 0 .655.205.655.614v4.333a.693.693 0 0 1-.184.45.601.601 0 0 1-.47.216c-1.412.154-2.589.758-3.53 1.813-.941 1.055-1.411 2.315-1.411 3.79V29.87c0 1.475-.277 2.878-.83 4.19a11.517 11.517 0 0 1-2.229 3.482 11.067 11.067 0 0 1-3.345 2.428c-1.289.614-2.67.963-4.143 1.065zM115.703 47.15c.44.062.654.298.654.708v4.425a.588.588 0 0 1-.184.45.374.374 0 0 1-.42.072 11.55 11.55 0 0 0-1.084-.144c-.378-.03-.756-.051-1.125-.051-1.534 0-2.977.287-4.327.87a11.166 11.166 0 0 0-3.55 2.408 11.21 11.21 0 0 0-2.403 3.585c-.583 1.362-.87 2.817-.87 4.354 0 1.536.287 2.991.87 4.363a10.962 10.962 0 0 0 2.404 3.555 12.011 12.011 0 0 0 3.55 2.407c1.35.594 2.792.891 4.326.891.686 0 1.422-.082 2.21-.235.41-.062.614.112.614.522v4.425a.765.765 0 0 1-.184.471.766.766 0 0 1-.471.287c-.348.03-.696.062-1.054.092-.358.031-.726.052-1.104.052-2.323 0-4.501-.44-6.537-1.322-2.036-.88-3.816-2.08-5.32-3.606a17.334 17.334 0 0 1-3.58-5.347c-.88-2.038-1.319-4.22-1.319-6.545s.44-4.507 1.32-6.546c.88-2.038 2.066-3.82 3.58-5.347 1.503-1.526 3.273-2.725 5.319-3.606 2.036-.88 4.214-1.321 6.537-1.321.705-.01 1.421.03 2.148.133zM131.323 63.827c.787 0 1.513-.154 2.189-.45a5.71 5.71 0 0 0 2.956-2.961c.297-.676.45-1.404.45-2.192 0-.79-.153-1.516-.45-2.192a5.718 5.718 0 0 0-1.197-1.762 5.833 5.833 0 0 0-1.76-1.199 5.366 5.366 0 0 0-2.188-.45c-.788 0-1.514.153-2.19.45a5.756 5.756 0 0 0-1.77 1.199 5.842 5.842 0 0 0-1.196 1.762 5.384 5.384 0 0 0-.45 2.192c0 .788.143 1.516.45 2.192a5.71 5.71 0 0 0 1.197 1.762 5.637 5.637 0 0 0 1.77 1.198c.675.298 1.4.45 2.189.45m8.848 16.82h-17.697c-.44 0-.654-.214-.654-.655V75.7c0-.44.214-.655.654-.655h17.697c.44 0 .655.225.655.655v4.292c0 .44-.215.656-.655.656m-8.848-33.875c1.534 0 2.987.297 4.347.89a11.062 11.062 0 0 1 3.55 2.449c1.002 1.035 1.8 2.253 2.404 3.657.593 1.393.89 2.878.89 4.456 0 1.567-.297 3.052-.89 4.456-.594 1.393-1.392 2.612-2.405 3.646a11.056 11.056 0 0 1-3.55 2.449c-1.36.594-2.812.89-4.346.89a10.84 10.84 0 0 1-4.358-.89 11.056 11.056 0 0 1-3.55-2.449c-1.002-1.034-1.8-2.253-2.404-3.646a11.254 11.254 0 0 1-.89-4.456c0-1.567.297-3.053.89-4.456a11.89 11.89 0 0 1 2.404-3.657 11.062 11.062 0 0 1 3.55-2.448 10.84 10.84 0 0 1 4.358-.891" fill="#025099"/>
            <g transform="translate(146.758 47.038)">
                <mask id="b" fill="#fff">
                    <use xlink:href="#a"/>
                </mask>
                <path d="M.655.01h4.327c.378 0 .736.144 1.084.42l7.948 8.287V.615c0-.41.205-.615.614-.615h4.327c.44 0 .655.205.655.615v32.369c0 .41-.215.614-.655.614h-4.327c-.41 0-.614-.204-.614-.614V16.82L5.596 8.05v24.923c0 .41-.205.614-.614.614H.655c-.44 0-.655-.204-.655-.614V.604C-.01.215.215.01.655.01z" fill="#025099" mask="url(#b)"/>
            </g>
            <mask id="d" fill="#fff">
                <use xlink:href="#c"/>
            </mask>
            <path d="M2.435 79.625H79.51V2.439H2.435v77.186zM80.73 0H1.215C.54 0 0 .54 0 1.217v79.625c0 .676.54 1.217 1.215 1.217H80.73c.675 0 1.216-.541 1.216-1.217V1.217c0-.676-.54-1.217-1.216-1.217z" fill="#025099" mask="url(#d)"/>
            <path d="M73.977 31.745a1.218 1.218 0 0 1-1.215 1.217c-.317 0-.624-.12-.861-.359L48.986 9.662a1.247 1.247 0 0 1-.265-1.334 1.216 1.216 0 0 1 1.127-.746h22.914c.675 0 1.215.54 1.215 1.217v22.946zm-8.386 8.827 3.572-3.58 3.576 3.58-3.576 3.577-3.572-3.577zm8.386 31.788c0 .676-.54 1.217-1.215 1.217H49.848c-.494 0-.941-.294-1.127-.746a1.247 1.247 0 0 1 .265-1.334l22.915-22.942c.349-.35.87-.461 1.331-.265.447.181.745.634.745 1.123V72.36zm-32.385 4.136-3.577-3.581 3.577-3.577 3.571 3.577-3.571 3.58zm-7.94-3.665a1.2 1.2 0 0 1-1.122.746H9.616c-.676 0-1.22-.541-1.22-1.217V49.413c0-.49.298-.942.75-1.123a1.203 1.203 0 0 1 1.326.265l22.915 22.947c.35.345.452.867.265 1.329zM16.75 40.568l-3.571 3.576-3.572-3.576 3.572-3.581 3.571 3.58zM8.396 8.799c0-.676.544-1.217 1.22-1.217H32.53c.489 0 .94.294 1.122.746a1.23 1.23 0 0 1-.265 1.334L10.472 32.603c-.223.238-.54.36-.856.36a1.215 1.215 0 0 1-1.22-1.217V8.798zm49.493 37.103-15.282 21.94a1.23 1.23 0 0 1-1.006.522c-.396 0-.778-.192-1.001-.523L25.308 45.902a1.219 1.219 0 0 1 1.625-1.744l14.668 8.748 14.668-8.748a1.2 1.2 0 0 1 1.504.215c.4.42.442 1.058.116 1.53zm.047-7.661a.836.836 0 0 1 .084.154c.009.028.018.06.032.088.019.042.028.094.037.136a.25.25 0 0 1 .014.102c0 .051.01.089.038.121 0 .042-.01.07-.01.112-.009.052-.009.094-.018.136v.018c0 .033-.024.075-.033.103-.01.042-.018.07-.028.102-.014 0-.014.01-.014.01a1.048 1.048 0 0 1-.163.28c-.009.018-.028.037-.05.06-.061.07-.131.13-.206.182-.01.014-.028.023-.037.033l-.014.009-15.283 9.526c-.009 0-.018 0-.028.01a1.845 1.845 0 0 1-.246.102c-.019.014-.052.014-.07.024-.093.018-.196.042-.298.042-.103 0-.205-.024-.298-.042a.138.138 0 0 1-.07-.024.835.835 0 0 1-.247-.102c-.01 0-.018 0-.028-.01l-15.296-9.526-.01-.01c-.028-.032-.07-.05-.102-.083a.533.533 0 0 0-.08-.07c-.032-.033-.05-.06-.083-.094a.495.495 0 0 1-.08-.093c-.022-.018-.032-.046-.05-.08-.033-.041-.052-.083-.075-.12-.01 0-.01-.014-.01-.014-.018-.028-.018-.06-.032-.089a.564.564 0 0 1-.037-.116v-.02a.458.458 0 0 1-.023-.134c0-.028-.01-.07-.01-.098 0-.042.01-.094.01-.135 0-.033 0-.07.009-.103.014-.051.033-.093.042-.135.01-.038.023-.07.032-.103.01-.037.042-.08.061-.121.019-.028.019-.06.042-.08l15.208-23.715c.228-.35.615-.564 1.024-.564h.07c.554 0 1.025.391 1.169.904l15.129 23.362v.014c.01.009.018.028.028.05zM41.592 5.213l3.571 3.581-3.571 3.577-3.577-3.577 3.577-3.58zM2.435 79.625H79.51V2.439H2.435v77.186z" fill="#FAFAF0" mask="url(#d)"/>
            <path d="M42.83 46.187V34.315l11.413 4.751-11.413 7.12zm0-26.817 10.915 16.852L42.83 31.67V19.37zm-2.435 12.3-10.947 4.552 10.947-17.057V31.67zm0 14.517-11.418-7.12 11.418-4.752v11.872zm17.708-7.466c0-.032 0-.074-.014-.102-.009-.042-.018-.094-.037-.136-.014-.028-.023-.06-.032-.088a.836.836 0 0 0-.084-.154.167.167 0 0 0-.028-.051v-.014L42.779 14.814c-.144-.513-.615-.904-1.169-.904h-.07c-.41 0-.796.214-1.024.564L25.308 38.19c-.023.018-.023.05-.042.079-.019.042-.051.084-.06.121-.01.033-.024.065-.033.103-.01.042-.028.084-.042.135-.01.033-.01.07-.01.103 0 .041-.009.093-.009.135 0 .028.01.07.01.098 0 .042.009.093.023.135v.019c.01.042.019.074.037.116.014.028.014.06.033.089 0 0 0 .014.01.014.022.037.041.079.074.12.018.034.028.062.05.08a.495.495 0 0 0 .08.093c.033.033.051.061.084.094a.533.533 0 0 1 .079.07c.033.032.074.051.102.084l.01.009L41 49.413c.01.01.019.01.028.01a.835.835 0 0 0 .247.102.138.138 0 0 0 .07.024c.093.018.195.042.298.042.102 0 .205-.024.298-.042.018-.01.051-.01.07-.024.083-.028.163-.06.246-.102.01-.01.02-.01.028-.01l15.283-9.526.014-.01c.01-.009.028-.018.037-.032.075-.051.145-.112.205-.182.023-.023.042-.042.051-.06.065-.084.126-.178.163-.28 0 0 0-.01.014-.01.01-.032.019-.06.028-.102.01-.028.033-.07.033-.103v-.018c.01-.042.01-.084.018-.136 0-.042.01-.07.01-.112-.028-.032-.038-.07-.038-.12z" fill="#025099" mask="url(#d)"/>
            <path fill="#D0E4EB" mask="url(#d)" d="M40.395 34.315v11.872l-11.418-7.12zM54.243 39.066l-11.413 7.12V34.316zM53.745 36.222 42.83 31.67V19.37zM40.395 19.165V31.67l-10.947 4.55z"/>
            <path d="M42.83 63.272v-8.244l9.84-5.871-9.84 14.115zm-2.435 0-9.84-14.115 9.84 5.87v8.245zm17.378-18.9a1.2 1.2 0 0 0-1.504-.214L41.6 52.906l-14.668-8.748a1.219 1.219 0 0 0-1.625 1.744L40.6 67.842c.223.33.605.522 1 .522.401 0 .77-.192 1.007-.523l15.282-21.939a1.214 1.214 0 0 0-.116-1.53z" fill="#025099" mask="url(#d)"/>
            <path fill="#D0E4EB" mask="url(#d)" d="m52.67 49.157-9.84 14.115v-8.244zM40.395 55.028v8.244l-9.84-14.115z"/>
            <path fill="#F4BD03" mask="url(#d)" d="m45.163 72.915-3.571 3.58-3.577-3.58 3.577-3.577zM45.163 8.794l-3.571 3.577-3.577-3.577 3.577-3.58zM16.75 40.568l-3.572 3.576-3.572-3.576 3.572-3.581zM72.739 40.572l-3.576 3.577-3.572-3.577 3.572-3.58z"/>
            <path d="M10.831 28.803V10.016h18.76l-18.76 18.787zM33.652 8.328a1.21 1.21 0 0 0-1.122-.746H9.616c-.676 0-1.22.54-1.22 1.217v22.946a1.215 1.215 0 0 0 1.22 1.217c.316 0 .633-.12.856-.359L33.387 9.662c.35-.35.452-.872.265-1.334z" fill="#025099" mask="url(#d)"/>
            <path fill="#FAFAF0" mask="url(#d)" d="M29.592 10.016 10.83 28.803V10.016z"/>
            <path d="M71.551 28.803 52.795 10.016h18.756v18.787zm1.211-21.221H49.848c-.494 0-.941.294-1.127.746-.182.462-.08.984.265 1.334l22.915 22.941c.237.238.544.36.861.36a1.218 1.218 0 0 0 1.215-1.217V8.798c0-.676-.54-1.217-1.215-1.217z" fill="#025099" mask="url(#d)"/>
            <path fill="#FAFAF0" mask="url(#d)" d="M71.551 10.016v18.787L52.795 10.016z"/>
            <path d="M71.551 71.143H52.795l18.756-18.787v18.787zm1.681-22.853a1.208 1.208 0 0 0-1.331.265L48.986 71.497c-.345.35-.447.872-.265 1.334.186.452.633.746 1.127.746h22.914c.675 0 1.215-.541 1.215-1.217V49.413c0-.49-.298-.942-.745-1.123z" fill="#025099" mask="url(#d)"/>
            <path fill="#FAFAF0" mask="url(#d)" d="M71.551 52.356v18.787H52.795z"/>
            <path d="M10.831 71.143V52.356l18.76 18.787h-18.76zm22.556.359L10.472 48.555a1.203 1.203 0 0 0-1.327-.265c-.451.181-.75.634-.75 1.123V72.36c0 .676.545 1.217 1.22 1.217H32.53a1.2 1.2 0 0 0 1.122-.746 1.22 1.22 0 0 0-.265-1.33z" fill="#025099" mask="url(#d)"/>
            <path fill="#FAFAF0" mask="url(#d)" d="M29.592 71.143H10.83V52.356z"/>
        </g>
        <path d="M89.375 154.08c.947 0 1.837-.179 2.669-.538a6.921 6.921 0 0 0 2.18-1.47 6.932 6.932 0 0 0 1.468-2.183 6.691 6.691 0 0 0 .538-2.673c0-.948-.18-1.839-.538-2.672a6.932 6.932 0 0 0-1.469-2.183 6.921 6.921 0 0 0-2.18-1.47 6.666 6.666 0 0 0-2.668-.539c-.947 0-1.837.18-2.67.538a6.921 6.921 0 0 0-2.178 1.471 6.932 6.932 0 0 0-1.47 2.183 6.691 6.691 0 0 0-.537 2.672c0 .949.18 1.84.538 2.673.358.833.848 1.56 1.469 2.183a6.921 6.921 0 0 0 2.179 1.47 6.666 6.666 0 0 0 2.669.539zm0-2.287c-.627 0-1.22-.122-1.776-.366a4.671 4.671 0 0 1-1.45-.98 4.678 4.678 0 0 1-.98-1.452 4.4 4.4 0 0 1-.364-1.779 4.4 4.4 0 0 1 .365-1.778 4.8 4.8 0 0 1 .979-1.461 4.46 4.46 0 0 1 1.45-.981 4.485 4.485 0 0 1 1.776-.356c.627 0 1.22.119 1.776.356a4.46 4.46 0 0 1 1.45.98 4.8 4.8 0 0 1 .979 1.462 4.4 4.4 0 0 1 .365 1.778 4.4 4.4 0 0 1-.365 1.779 4.678 4.678 0 0 1-.98 1.452c-.409.41-.892.737-1.449.98a4.384 4.384 0 0 1-1.776.366zm14.842 2.288a5.2 5.2 0 0 0 .452-.02l.432-.038a.303.303 0 0 0 .192-.115.308.308 0 0 0 .077-.192v-1.808c0-.167-.084-.237-.25-.211-.32.064-.62.096-.903.096a4.317 4.317 0 0 1-1.766-.366 4.826 4.826 0 0 1-1.45-.98 4.468 4.468 0 0 1-.979-1.452 4.502 4.502 0 0 1-.355-1.779 4.579 4.579 0 0 1 2.784-4.22 4.417 4.417 0 0 1 1.766-.356c.154 0 .308.007.461.02.154.012.301.031.442.057a.156.156 0 0 0 .173-.029.23.23 0 0 0 .077-.182v-1.808c0-.167-.09-.263-.27-.288a6.813 6.813 0 0 0-.883-.058c-.947 0-1.836.18-2.669.538a6.807 6.807 0 0 0-2.17 1.471 7.015 7.015 0 0 0-1.459 2.183 6.691 6.691 0 0 0-.537 2.672c0 .949.179 1.84.537 2.673.359.833.845 1.56 1.46 2.183a6.807 6.807 0 0 0 2.17 1.47 6.666 6.666 0 0 0 2.668.539zm7.182 0c.077 0 .14-.029.192-.087a.272.272 0 0 0 .077-.182V142.64h2.016c.179 0 .269-.09.269-.269v-1.769c0-.167-.09-.25-.27-.25h-6.336c-.166 0-.25.083-.25.25v1.769c0 .18.084.27.25.27h2.036v11.17c0 .065.025.126.076.183a.227.227 0 0 0 .173.087h1.767zm10.656 0c.948 0 1.837-.18 2.67-.539a6.921 6.921 0 0 0 2.179-1.47 6.932 6.932 0 0 0 1.469-2.183 6.691 6.691 0 0 0 .537-2.673c0-.948-.179-1.839-.537-2.672a6.932 6.932 0 0 0-1.47-2.183 6.921 6.921 0 0 0-2.179-1.47 6.666 6.666 0 0 0-2.669-.539c-.947 0-1.836.18-2.668.538a6.921 6.921 0 0 0-2.18 1.471 6.932 6.932 0 0 0-1.469 2.183 6.691 6.691 0 0 0-.537 2.672c0 .949.179 1.84.537 2.673.359.833.848 1.56 1.47 2.183a6.921 6.921 0 0 0 2.179 1.47 6.666 6.666 0 0 0 2.668.539zm0-2.288c-.627 0-1.219-.122-1.776-.366a4.671 4.671 0 0 1-1.45-.98 4.678 4.678 0 0 1-.979-1.452 4.4 4.4 0 0 1-.364-1.779 4.4 4.4 0 0 1 .364-1.778 4.8 4.8 0 0 1 .98-1.461 4.46 4.46 0 0 1 1.45-.981 4.485 4.485 0 0 1 1.775-.356c.628 0 1.22.119 1.777.356a4.46 4.46 0 0 1 1.45.98 4.8 4.8 0 0 1 .979 1.462 4.4 4.4 0 0 1 .364 1.778 4.4 4.4 0 0 1-.364 1.779 4.678 4.678 0 0 1-.98 1.452c-.41.41-.893.737-1.45.98a4.384 4.384 0 0 1-1.776.366zm13.057 2.288c.628 0 1.22-.122 1.777-.365a4.671 4.671 0 0 0 1.45-.981c.409-.41.735-.894.978-1.452a4.4 4.4 0 0 0 .365-1.778c0-.462-.064-.904-.192-1.327a4.466 4.466 0 0 0-.547-1.173 4.87 4.87 0 0 0-.845-.971 4.314 4.314 0 0 0-1.085-.702c.256-.474.384-.993.384-1.557a3.37 3.37 0 0 0-1.008-2.423 3.562 3.562 0 0 0-1.094-.73c-.416-.18-.861-.27-1.335-.27h-3.168c-.166 0-.25.083-.25.25v13.21c0 .064.026.125.077.182a.227.227 0 0 0 .173.087h4.32zm-1.152-9.153h-1.133v-2.288h1.133c.32 0 .592.11.816.327.224.218.336.487.336.808 0 .32-.112.592-.336.817a1.11 1.11 0 0 1-.816.336zm1.152 6.865h-2.285v-4.577h2.285a2.32 2.32 0 0 1 1.613.673c.205.206.368.446.49.721.122.276.182.574.182.895a2.324 2.324 0 0 1-.672 1.615 2.32 2.32 0 0 1-1.613.673zm12.98 2.288c.077 0 .141-.029.193-.087a.272.272 0 0 0 .076-.182v-1.77c0-.166-.09-.25-.269-.25h-4.3v-4.576h3.168a.227.227 0 0 0 .172-.086.272.272 0 0 0 .077-.183v-1.769c0-.166-.083-.25-.25-.25h-3.168v-2.288h4.301c.18 0 .27-.09.27-.269v-1.769c0-.167-.09-.25-.27-.25h-6.317c-.179 0-.269.083-.269.25v13.21c0 .064.026.125.077.182a.246.246 0 0 0 .192.087h6.317zm4.206 0c.076 0 .14-.029.192-.087a.272.272 0 0 0 .076-.182v-4.307h2.266l1.959 4.326a.388.388 0 0 0 .153.173.413.413 0 0 0 .23.077h1.978c.077 0 .128-.026.154-.077a.204.204 0 0 0 0-.173l-2.227-4.903a4.745 4.745 0 0 0 1.69-1.654 4.377 4.377 0 0 0 .652-2.346 4.4 4.4 0 0 0-.365-1.778 4.8 4.8 0 0 0-.979-1.462 4.46 4.46 0 0 0-1.45-.98 4.485 4.485 0 0 0-1.776-.356h-4.3c-.18 0-.27.083-.27.25v13.21c0 .064.026.125.077.182a.246.246 0 0 0 .192.087h1.748zm2.553-6.865h-2.285v-4.576h2.285c.32 0 .618.061.893.183s.515.285.72.49c.205.205.368.446.49.721.122.276.182.574.182.894a2.324 2.324 0 0 1-.672 1.615 2.352 2.352 0 0 1-.72.49 2.182 2.182 0 0 1-.893.183zm20.815 6.865c.179 0 .268-.083.268-.25v-1.73c0-.167-.09-.25-.268-.25l-3.84.019c.422-.552.806-1.051 1.151-1.5.154-.192.304-.385.452-.577.147-.192.288-.369.422-.529.134-.16.25-.301.346-.423.096-.122.17-.208.22-.26l.365-.442c.154-.18.298-.362.432-.548.135-.185.266-.375.394-.567.397-.68.595-1.397.595-2.153 0-.628-.118-1.221-.355-1.779a4.693 4.693 0 0 0-.98-1.47 4.625 4.625 0 0 0-1.459-1 4.384 4.384 0 0 0-1.776-.366c-.601 0-1.171.115-1.709.346a4.661 4.661 0 0 0-1.42.942c-.41.398-.74.859-.99 1.385a4.553 4.553 0 0 0-.431 1.672.199.199 0 0 0 .067.193.271.271 0 0 0 .182.077h1.767c.153 0 .243-.09.269-.27a2.51 2.51 0 0 1 .74-1.461 2.19 2.19 0 0 1 1.525-.615c.256 0 .51.051.759.154.25.102.473.24.672.413.198.173.371.375.518.606.147.23.247.468.298.711.064.333.054.647-.029.942-.083.295-.266.667-.547 1.116-.013.025-.141.192-.384.5a449.65 449.65 0 0 1-2.18 2.73c-.454.564-.892 1.115-1.315 1.653-.422.539-.806 1.023-1.152 1.452l-.768.952c-.115.141-.173.23-.173.27 0 .038.083.057.25.057h8.084zm7.027 0c.628 0 1.22-.119 1.776-.356a4.46 4.46 0 0 0 1.45-.98c.41-.417.736-.901.98-1.452a4.38 4.38 0 0 0 .364-1.788v-4.577a4.4 4.4 0 0 0-.365-1.778 4.678 4.678 0 0 0-.979-1.452 4.671 4.671 0 0 0-1.45-.98 4.384 4.384 0 0 0-1.776-.366c-.627 0-1.219.122-1.776.365-.557.244-1.04.57-1.45.981-.41.41-.736.894-.979 1.452a4.4 4.4 0 0 0-.365 1.778v4.577c0 .64.122 1.237.365 1.788.243.551.57 1.035.98 1.452.41.416.892.743 1.45.98a4.485 4.485 0 0 0 1.775.356zm0-2.288c-.32 0-.617-.061-.893-.183a2.352 2.352 0 0 1-.72-.49 2.355 2.355 0 0 1-.49-.721 2.19 2.19 0 0 1-.182-.894v-4.577a2.324 2.324 0 0 1 .672-1.615c.205-.205.445-.368.72-.49.276-.122.573-.183.893-.183.32 0 .618.061.893.183s.515.285.72.49a2.324 2.324 0 0 1 .672 1.615v4.577c0 .32-.06.618-.182.894a2.355 2.355 0 0 1-.49.72 2.352 2.352 0 0 1-.72.491 2.182 2.182 0 0 1-.893.183zm9.6-1.635c.18 0 .27-.09.27-.269v-1.327c0-.18-.09-.269-.27-.269h-3.225c-.18 0-.269.09-.269.27v1.326c0 .18.09.27.27.27h3.225zm10.946 3.923c.179 0 .269-.083.269-.25v-1.73c0-.167-.09-.25-.27-.25l-3.84.019c.423-.552.807-1.051 1.153-1.5.153-.192.304-.385.45-.577.148-.192.289-.369.423-.529.135-.16.25-.301.346-.423.096-.122.17-.208.22-.26l.365-.442c.154-.18.298-.362.432-.548.135-.185.266-.375.394-.567.397-.68.595-1.397.595-2.153 0-.628-.118-1.221-.355-1.779a4.693 4.693 0 0 0-.98-1.47 4.625 4.625 0 0 0-1.458-1 4.384 4.384 0 0 0-1.777-.366c-.601 0-1.17.115-1.708.346a4.661 4.661 0 0 0-1.421.942c-.41.398-.74.859-.99 1.385a4.553 4.553 0 0 0-.431 1.672.199.199 0 0 0 .067.193.271.271 0 0 0 .182.077h1.767c.153 0 .243-.09.269-.27a2.51 2.51 0 0 1 .74-1.461 2.19 2.19 0 0 1 1.525-.615c.256 0 .51.051.759.154.25.102.474.24.672.413.198.173.371.375.518.606a2.023 2.023 0 0 1 .269 1.654c-.083.294-.265.666-.547 1.115-.013.025-.14.192-.384.5a449.493 449.493 0 0 1-2.18 2.73c-.454.564-.892 1.115-1.315 1.653a150.79 150.79 0 0 1-1.152 1.452c-.345.43-.601.747-.768.952-.115.141-.173.23-.173.27 0 .038.084.057.25.057h8.084zm5.549 0c.166 0 .25-.083.25-.25v-13.21a.272.272 0 0 0-.077-.182.227.227 0 0 0-.173-.087h-1.767c-.166 0-.294.083-.384.25l-.902 1.807c-.064.154-.02.231.134.231h.884v11.19c0 .168.09.25.268.25h1.767zm3.303 1.98c.179 0 .313-.077.403-.23l.979-1.654c.14-.244.266-.471.374-.683.11-.211.164-.445.164-.701 0-.423-.144-.77-.432-1.039a1.43 1.43 0 0 0-1.008-.404c-.372 0-.701.135-.99.404-.287.27-.431.616-.431 1.039 0 .294.073.554.22.778.148.225.336.394.567.51l-.615 1.73a.183.183 0 0 0 .01.173c.032.052.086.077.163.077h.596zm18.356-1.98c.18 0 .269-.083.269-.25v-1.73c0-.167-.09-.25-.269-.25l-3.84.019c.422-.552.806-1.051 1.152-1.5.153-.192.304-.385.451-.577.147-.192.288-.369.422-.529.135-.16.25-.301.346-.423.096-.122.17-.208.22-.26l.366-.442c.153-.18.297-.362.432-.548.134-.185.265-.375.393-.567.397-.68.596-1.397.596-2.153 0-.628-.119-1.221-.356-1.779a4.693 4.693 0 0 0-.979-1.47 4.625 4.625 0 0 0-1.46-1 4.384 4.384 0 0 0-1.775-.366c-.602 0-1.172.115-1.71.346a4.661 4.661 0 0 0-1.42.942c-.41.398-.74.859-.989 1.385a4.553 4.553 0 0 0-.432 1.672.199.199 0 0 0 .067.193.271.271 0 0 0 .183.077h1.766c.154 0 .243-.09.269-.27a2.51 2.51 0 0 1 .74-1.461 2.19 2.19 0 0 1 1.526-.615c.256 0 .509.051.758.154.25.102.474.24.672.413.199.173.371.375.519.606a2.023 2.023 0 0 1 .269 1.654c-.084.294-.266.666-.548 1.115-.013.025-.14.192-.384.5a449.738 449.738 0 0 1-2.18 2.73 163.76 163.76 0 0 0-1.314 1.653 150.79 150.79 0 0 1-1.153 1.452c-.345.43-.601.747-.768.952-.115.141-.172.23-.172.27 0 .038.083.057.25.057h8.083zm7.028 0c.627 0 1.219-.119 1.776-.356a4.46 4.46 0 0 0 1.45-.98c.41-.417.736-.901.979-1.452a4.38 4.38 0 0 0 .365-1.788v-4.577a4.4 4.4 0 0 0-.365-1.778 4.678 4.678 0 0 0-.98-1.452 4.671 4.671 0 0 0-1.45-.98 4.384 4.384 0 0 0-1.775-.366c-.628 0-1.22.122-1.776.365-.557.244-1.04.57-1.45.981-.41.41-.736.894-.98 1.452a4.4 4.4 0 0 0-.364 1.778v4.577c0 .64.121 1.237.365 1.788.243.551.57 1.035.979 1.452.41.416.893.743 1.45.98a4.485 4.485 0 0 0 1.776.356zm0-2.288c-.32 0-.618-.061-.893-.183a2.352 2.352 0 0 1-.72-.49 2.355 2.355 0 0 1-.49-.721 2.19 2.19 0 0 1-.182-.894v-4.577a2.324 2.324 0 0 1 .672-1.615c.205-.205.445-.368.72-.49.275-.122.573-.183.893-.183.32 0 .617.061.893.183.275.122.515.285.72.49a2.324 2.324 0 0 1 .672 1.615v4.577c0 .32-.061.618-.183.894a2.355 2.355 0 0 1-.49.72 2.352 2.352 0 0 1-.72.491 2.182 2.182 0 0 1-.892.183zm14.67 2.288c.179 0 .268-.083.268-.25v-1.73c0-.167-.09-.25-.269-.25l-3.84.019 1.152-1.5c.154-.192.304-.385.452-.577.147-.192.288-.369.422-.529.134-.16.25-.301.346-.423.096-.122.17-.208.22-.26l.365-.442c.154-.18.298-.362.432-.548.135-.185.266-.375.394-.567.397-.68.595-1.397.595-2.153 0-.628-.118-1.221-.355-1.779a4.693 4.693 0 0 0-.98-1.47 4.625 4.625 0 0 0-1.459-1 4.384 4.384 0 0 0-1.776-.366c-.601 0-1.171.115-1.709.346a4.661 4.661 0 0 0-1.42.942c-.41.398-.74.859-.99 1.385a4.553 4.553 0 0 0-.432 1.672.199.199 0 0 0 .068.193.271.271 0 0 0 .182.077h1.767c.153 0 .243-.09.268-.27a2.51 2.51 0 0 1 .74-1.461 2.19 2.19 0 0 1 1.526-.615c.256 0 .509.051.759.154.25.102.473.24.672.413.198.173.37.375.518.606.147.23.247.468.298.711.064.333.054.647-.029.942-.083.295-.266.667-.547 1.116-.013.025-.141.192-.384.5a449.493 449.493 0 0 1-2.18 2.73c-.454.564-.893 1.115-1.315 1.653-.422.539-.806 1.023-1.152 1.452l-.768.952c-.115.141-.173.23-.173.27 0 .038.083.057.25.057h8.083zm5.549 0c.166 0 .25-.083.25-.25v-13.21a.272.272 0 0 0-.078-.182.227.227 0 0 0-.172-.087h-1.767c-.166 0-.294.083-.384.25l-.902 1.807c-.064.154-.02.231.134.231h.883v11.19c0 .168.09.25.27.25h1.766zm-169.24 22.433c.178 0 .268-.084.268-.25v-1.77c0-.179-.09-.269-.269-.269h-3.168v-11.171a.272.272 0 0 0-.077-.183.227.227 0 0 0-.173-.086H83.27a.257.257 0 0 0-.183.086.257.257 0 0 0-.086.183v13.21c0 .064.029.121.086.173a.271.271 0 0 0 .183.077h5.184zm3.897 0a.453.453 0 0 0 .23-.068.474.474 0 0 0 .173-.163l2.573-4.576 2.592 4.576a.474.474 0 0 0 .173.163.426.426 0 0 0 .211.068h2.132c.077 0 .128-.023.153-.068.026-.045.02-.099-.019-.163l-3.917-6.634 3.917-6.653c.09-.14.045-.211-.134-.211h-2.132a.422.422 0 0 0-.384.23l-2.592 4.558-2.573-4.557a.438.438 0 0 0-.403-.231h-2.112c-.18 0-.224.07-.135.211l3.898 6.653-3.898 6.634c-.038.064-.044.118-.019.163.026.045.077.068.154.068h2.112zm17.684 0c.167 0 .25-.084.25-.25v-6.615h3.168c.18 0 .27-.083.27-.25v-1.769a.272.272 0 0 0-.078-.182.246.246 0 0 0-.192-.087h-3.168v-2.288h4.32c.167 0 .25-.083.25-.25v-1.769c0-.167-.083-.25-.25-.25h-6.336c-.18 0-.269.083-.269.25v13.21c0 .166.09.25.269.25h1.766zm8.487 0a.227.227 0 0 0 .173-.087.272.272 0 0 0 .077-.183v-4.307h3.437v4.307c0 .065.026.125.077.183a.227.227 0 0 0 .173.087h1.766c.077 0 .141-.03.192-.087a.272.272 0 0 0 .077-.183v-9.46c0-.551-.106-1.07-.317-1.557a4.064 4.064 0 0 0-.854-1.27 4.057 4.057 0 0 0-1.268-.855 3.858 3.858 0 0 0-1.555-.317c-.55 0-1.069.106-1.555.317a4.177 4.177 0 0 0-1.277.856 3.983 3.983 0 0 0-.864 1.269 3.873 3.873 0 0 0-.317 1.557v9.46c0 .065.026.125.077.183a.246.246 0 0 0 .192.087h1.766zm3.687-6.865h-3.437v-2.865c0-.474.166-.878.5-1.211.332-.333.742-.5 1.228-.5.474 0 .877.167 1.21.5.333.333.5.737.5 1.211v2.865zm10.753 6.865a5.2 5.2 0 0 0 .451-.02l.432-.038a.303.303 0 0 0 .192-.115.308.308 0 0 0 .077-.193v-1.807c0-.167-.083-.237-.25-.212-.32.064-.62.096-.902.096a4.317 4.317 0 0 1-1.767-.365 4.826 4.826 0 0 1-1.45-.98 4.468 4.468 0 0 1-.979-1.452 4.502 4.502 0 0 1-.355-1.779 4.579 4.579 0 0 1 2.784-4.22 4.417 4.417 0 0 1 1.767-.356c.153 0 .307.006.46.02.154.012.302.031.442.057a.156.156 0 0 0 .173-.029.23.23 0 0 0 .077-.183v-1.807c0-.167-.09-.263-.269-.289a6.813 6.813 0 0 0-.883-.057c-.947 0-1.837.18-2.67.538a6.807 6.807 0 0 0-2.169 1.471 7.015 7.015 0 0 0-1.46 2.182 6.691 6.691 0 0 0-.537 2.673c0 .949.18 1.84.538 2.673.358.833.845 1.56 1.46 2.182a6.807 6.807 0 0 0 2.169 1.471 6.666 6.666 0 0 0 2.669.539zm7.181 0c.077 0 .141-.03.192-.087a.272.272 0 0 0 .077-.183v-11.171h2.016c.18 0 .269-.09.269-.27v-1.768c0-.167-.09-.25-.269-.25h-6.336c-.167 0-.25.083-.25.25v1.769c0 .18.083.269.25.269h2.035v11.171c0 .065.026.125.077.183a.227.227 0 0 0 .173.087h1.766zm10.657 0c.947 0 1.837-.18 2.669-.539a6.921 6.921 0 0 0 2.18-1.47 6.932 6.932 0 0 0 1.468-2.183 6.691 6.691 0 0 0 .538-2.673c0-.948-.18-1.84-.538-2.673a6.932 6.932 0 0 0-1.469-2.182 6.921 6.921 0 0 0-2.18-1.47 6.666 6.666 0 0 0-2.668-.54c-.947 0-1.837.18-2.67.54a6.921 6.921 0 0 0-2.178 1.47 6.932 6.932 0 0 0-1.47 2.182 6.691 6.691 0 0 0-.537 2.673c0 .949.18 1.84.538 2.673.358.833.848 1.56 1.469 2.182a6.921 6.921 0 0 0 2.179 1.471 6.666 6.666 0 0 0 2.669.539zm0-2.289c-.627 0-1.22-.121-1.776-.365a4.671 4.671 0 0 1-1.45-.98 4.678 4.678 0 0 1-.98-1.452 4.4 4.4 0 0 1-.364-1.779 4.4 4.4 0 0 1 .365-1.778 4.8 4.8 0 0 1 .98-1.462 4.46 4.46 0 0 1 1.449-.98 4.485 4.485 0 0 1 1.776-.356c.627 0 1.22.118 1.776.356a4.46 4.46 0 0 1 1.45.98 4.8 4.8 0 0 1 .979 1.462 4.4 4.4 0 0 1 .365 1.778 4.4 4.4 0 0 1-.365 1.779 4.678 4.678 0 0 1-.98 1.452c-.409.41-.892.737-1.449.98a4.384 4.384 0 0 1-1.776.365zm10.503 2.289c.077 0 .14-.03.192-.087a.272.272 0 0 0 .077-.183v-4.307h2.266l1.958 4.327a.388.388 0 0 0 .154.173.413.413 0 0 0 .23.077h1.978c.077 0 .128-.026.153-.077a.204.204 0 0 0 0-.173l-2.227-4.904a4.745 4.745 0 0 0 1.69-1.653 4.377 4.377 0 0 0 .653-2.346 4.4 4.4 0 0 0-.365-1.779 4.8 4.8 0 0 0-.98-1.46 4.46 4.46 0 0 0-1.45-.982 4.485 4.485 0 0 0-1.775-.355h-4.301c-.18 0-.27.083-.27.25v13.21c0 .064.026.124.078.182a.246.246 0 0 0 .192.087h1.747zm2.554-6.865h-2.285v-4.576h2.285c.32 0 .617.06.893.183.275.121.515.285.72.49.205.205.368.445.49.72.12.277.182.575.182.895a2.324 2.324 0 0 1-.672 1.615 2.352 2.352 0 0 1-.72.49 2.182 2.182 0 0 1-.893.183zm11.425 6.865c.166 0 .25-.084.25-.25v-4.769l3.532-8.46c.064-.154.013-.231-.153-.231h-1.959a.377.377 0 0 0-.202.067.35.35 0 0 0-.144.164l-2.208 5.634-2.208-5.634c-.064-.154-.185-.231-.365-.231h-1.958c-.167 0-.218.077-.154.23l3.533 8.461v4.769c0 .166.09.25.269.25h1.767zm6.202 1.98c.179 0 .313-.077.403-.23l.98-1.654c.14-.244.265-.471.374-.683.108-.211.163-.445.163-.702 0-.423-.144-.769-.432-1.038a1.43 1.43 0 0 0-1.008-.404c-.372 0-.701.135-.99.404-.287.27-.431.615-.431 1.038 0 .295.073.555.22.78.148.223.337.393.567.509l-.614 1.73a.183.183 0 0 0 .01.173c.031.051.086.077.162.077h.596zm15.245-1.98c.18 0 .27-.084.27-.25v-1.77c0-.179-.09-.269-.27-.269h-3.168v-11.171a.272.272 0 0 0-.077-.183.227.227 0 0 0-.172-.086h-1.767a.257.257 0 0 0-.182.086.257.257 0 0 0-.087.183v13.21c0 .064.03.121.087.173a.271.271 0 0 0 .182.077h5.184zm4.11 0c.179 0 .268-.084.268-.25v-13.21c0-.167-.09-.25-.268-.25h-1.748c-.179 0-.269.083-.269.25v13.21c0 .166.09.25.27.25h1.747zm5.126.057c.55 0 1.095-.109 1.632-.327.525-.217.992-.519 1.402-.903.397-.385.71-.82.941-1.308.23-.5.346-1.025.346-1.577-.026-.615-.128-1.134-.308-1.557a3.203 3.203 0 0 0-.73-1.077 4.125 4.125 0 0 0-.44-.384 10.177 10.177 0 0 0-.462-.327c-.153-.09-.33-.186-.528-.289-.198-.102-.419-.211-.662-.326-.346-.167-.647-.321-.903-.462a3.182 3.182 0 0 1-.614-.423c-.295-.256-.448-.596-.461-1.02 0-.435.186-.826.557-1.172.371-.333.832-.513 1.382-.538.244 0 .48.038.71.115.346.103.618.208.817.317.198.11.387.228.566.356.141.077.212.038.212-.115v-1.789a.54.54 0 0 0-.058-.22.297.297 0 0 0-.154-.164 35.058 35.058 0 0 1-.45-.23 5.027 5.027 0 0 0-.51-.232 4.464 4.464 0 0 0-1.133-.173 4.29 4.29 0 0 0-1.555.289 4.864 4.864 0 0 0-1.306.788 4.142 4.142 0 0 0-.921 1.192 3.395 3.395 0 0 0-.384 1.48c0 .514.09.981.268 1.404.167.398.404.738.71 1.02.142.14.286.272.433.394a5.492 5.492 0 0 0 .97.644l.614.327c.717.359 1.248.692 1.594 1 .307.269.46.634.46 1.096 0 .538-.185 1.012-.556 1.422a1.81 1.81 0 0 1-1.402.616c-.14 0-.285-.013-.432-.039a4.7 4.7 0 0 1-.432-.096 4.136 4.136 0 0 1-.787-.346c-.23-.128-.435-.25-.615-.365a1.773 1.773 0 0 1-.297-.27 22.277 22.277 0 0 0-.356-.365c-.128-.102-.192-.077-.192.077v2.23c0 .18.077.315.23.404l.106.065.374.23.145.09c.25.154.458.256.624.308.435.153.954.23 1.555.23zm10.715-.057c.627 0 1.219-.122 1.776-.366a4.671 4.671 0 0 0 1.45-.98c.41-.41.736-.894.979-1.452a4.4 4.4 0 0 0 .365-1.779c0-.461-.064-.903-.192-1.326a4.466 4.466 0 0 0-.548-1.173 4.87 4.87 0 0 0-.845-.971 4.314 4.314 0 0 0-1.084-.702c.256-.474.384-.994.384-1.558a3.37 3.37 0 0 0-1.008-2.423 3.562 3.562 0 0 0-1.095-.73c-.416-.18-.86-.27-1.334-.27h-3.169c-.166 0-.25.084-.25.25v13.21c0 .065.026.125.078.183a.227.227 0 0 0 .172.087h4.32zm-1.152-9.153h-1.133v-2.288h1.133c.32 0 .592.109.816.327.224.218.336.487.336.807 0 .32-.112.593-.336.818a1.11 1.11 0 0 1-.816.336zm1.152 6.864h-2.285v-4.576h2.285a2.32 2.32 0 0 1 1.613.673c.204.205.368.446.49.721.12.276.182.574.182.894a2.324 2.324 0 0 1-.672 1.615 2.32 2.32 0 0 1-1.613.673zm12.769 2.289c.947 0 1.836-.18 2.668-.539a6.921 6.921 0 0 0 2.18-1.47 6.932 6.932 0 0 0 1.469-2.183 6.691 6.691 0 0 0 .537-2.673c0-.948-.179-1.84-.537-2.673a6.932 6.932 0 0 0-1.47-2.182 6.921 6.921 0 0 0-2.179-1.47 6.666 6.666 0 0 0-2.668-.54c-.948 0-1.837.18-2.67.54a6.921 6.921 0 0 0-2.179 1.47 6.932 6.932 0 0 0-1.469 2.182 6.691 6.691 0 0 0-.537 2.673c0 .949.179 1.84.537 2.673.359.833.848 1.56 1.47 2.182a6.921 6.921 0 0 0 2.179 1.471 6.666 6.666 0 0 0 2.669.539zm0-2.289c-.628 0-1.22-.121-1.777-.365a4.671 4.671 0 0 1-1.45-.98 4.678 4.678 0 0 1-.979-1.452 4.4 4.4 0 0 1-.364-1.779 4.4 4.4 0 0 1 .364-1.778 4.8 4.8 0 0 1 .98-1.462 4.46 4.46 0 0 1 1.45-.98 4.485 4.485 0 0 1 1.776-.356c.627 0 1.219.118 1.776.356a4.46 4.46 0 0 1 1.45.98 4.8 4.8 0 0 1 .979 1.462 4.4 4.4 0 0 1 .364 1.778 4.4 4.4 0 0 1-.364 1.779 4.678 4.678 0 0 1-.98 1.452c-.41.41-.893.737-1.45.98a4.384 4.384 0 0 1-1.775.365zm10.522 2.289c.166 0 .25-.084.25-.25v-10.172l3.436 3.576v6.596c0 .166.084.25.25.25h1.767c.179 0 .268-.084.268-.25v-13.21c0-.167-.09-.25-.268-.25h-1.767c-.166 0-.25.083-.25.25v3.307l-3.245-3.384a.689.689 0 0 0-.441-.173h-1.767c-.179 0-.269.083-.269.25v13.21c0 .166.09.25.27.25h1.766zm9.024 1.98c.18 0 .314-.077.404-.23l.979-1.654c.14-.244.266-.471.374-.683.11-.211.164-.445.164-.702 0-.423-.144-.769-.432-1.038a1.43 1.43 0 0 0-1.009-.404c-.37 0-.7.135-.988.404-.288.27-.432.615-.432 1.038 0 .295.073.555.22.78.148.223.336.393.567.509l-.615 1.73a.183.183 0 0 0 .01.173c.032.051.086.077.163.077h.595zm11.828-1.98a.227.227 0 0 0 .173-.087.272.272 0 0 0 .077-.183v-4.307h2.285c.627 0 1.22-.121 1.776-.365a4.792 4.792 0 0 0 1.46-.98c.416-.41.742-.895.979-1.452.237-.558.355-1.15.355-1.779a4.579 4.579 0 0 0-1.334-3.24 4.572 4.572 0 0 0-3.236-1.336h-4.301c-.18 0-.269.083-.269.25v13.21c0 .064.026.124.077.182a.246.246 0 0 0 .192.087h1.766zm2.535-6.865h-2.285v-4.576h2.285c.32 0 .618.06.893.183.275.121.515.285.72.49.205.205.368.445.49.72.121.277.182.575.182.895a2.324 2.324 0 0 1-.672 1.615 2.352 2.352 0 0 1-.72.49 2.182 2.182 0 0 1-.893.183zm12.673 6.865c.947 0 1.837-.18 2.669-.539a6.921 6.921 0 0 0 2.18-1.47 6.932 6.932 0 0 0 1.468-2.183 6.691 6.691 0 0 0 .538-2.673c0-.948-.18-1.84-.538-2.673a6.932 6.932 0 0 0-1.469-2.182 6.921 6.921 0 0 0-2.18-1.47 6.666 6.666 0 0 0-2.668-.54c-.947 0-1.837.18-2.67.54a6.921 6.921 0 0 0-2.178 1.47 6.932 6.932 0 0 0-1.47 2.182 6.691 6.691 0 0 0-.537 2.673c0 .949.18 1.84.538 2.673.358.833.848 1.56 1.469 2.182a6.921 6.921 0 0 0 2.179 1.471 6.666 6.666 0 0 0 2.669.539zm0-2.289c-.627 0-1.22-.121-1.776-.365a4.671 4.671 0 0 1-1.45-.98 4.678 4.678 0 0 1-.98-1.452 4.4 4.4 0 0 1-.364-1.779 4.4 4.4 0 0 1 .365-1.778 4.8 4.8 0 0 1 .98-1.462 4.46 4.46 0 0 1 1.449-.98 4.485 4.485 0 0 1 1.776-.356c.627 0 1.22.118 1.776.356a4.46 4.46 0 0 1 1.45.98 4.8 4.8 0 0 1 .979 1.462 4.4 4.4 0 0 1 .365 1.778 4.4 4.4 0 0 1-.365 1.779 4.678 4.678 0 0 1-.98 1.452c-.409.41-.892.737-1.449.98a4.384 4.384 0 0 1-1.776.365zm10.503 2.289c.077 0 .14-.03.192-.087a.272.272 0 0 0 .077-.183v-4.307h2.266l1.958 4.327a.388.388 0 0 0 .154.173.413.413 0 0 0 .23.077h1.978c.077 0 .128-.026.154-.077a.204.204 0 0 0 0-.173l-2.228-4.904a4.745 4.745 0 0 0 1.69-1.653 4.377 4.377 0 0 0 .653-2.346 4.4 4.4 0 0 0-.365-1.779 4.8 4.8 0 0 0-.98-1.46 4.46 4.46 0 0 0-1.45-.982 4.485 4.485 0 0 0-1.775-.355h-4.301c-.18 0-.27.083-.27.25v13.21c0 .064.027.124.078.182a.246.246 0 0 0 .192.087h1.747zm2.554-6.865h-2.285v-4.576h2.285c.32 0 .617.06.893.183.275.121.515.285.72.49.205.205.368.445.49.72.121.277.182.575.182.895a2.324 2.324 0 0 1-.672 1.615 2.352 2.352 0 0 1-.72.49 2.182 2.182 0 0 1-.893.183zm10.599 6.865c.077 0 .14-.03.192-.087a.272.272 0 0 0 .077-.183v-11.171h2.016c.18 0 .269-.09.269-.27v-1.768c0-.167-.09-.25-.27-.25h-6.336c-.166 0-.25.083-.25.25v1.769c0 .18.084.269.25.269h2.036v11.171c0 .065.025.125.077.183a.227.227 0 0 0 .172.087h1.767zm8.295 0c.55 0 1.069-.106 1.555-.318.487-.211.91-.5 1.268-.865s.643-.791.854-1.279a3.873 3.873 0 0 0 .317-1.557v-9.46c0-.167-.09-.25-.269-.25h-1.747c-.18 0-.27.083-.27.25v9.46c0 .487-.166.897-.498 1.23-.333.334-.736.5-1.21.5-.487 0-.896-.166-1.229-.5a1.674 1.674 0 0 1-.5-1.23v-9.46c0-.167-.082-.25-.249-.25h-1.766a.271.271 0 0 0-.183.077.228.228 0 0 0-.086.173v9.46c0 .551.105 1.07.317 1.557.21.488.499.914.864 1.28.365.364.79.653 1.277.864a3.858 3.858 0 0 0 1.555.318zm14.497.326c.18 0 .269-.083.269-.25v-8.633a.272.272 0 0 0-.077-.183.246.246 0 0 0-.192-.086h-2.9a.257.257 0 0 0-.182.086.257.257 0 0 0-.086.183v1.77c0 .063.029.12.086.172a.271.271 0 0 0 .183.077h.883v4.576c-.64 0-1.235-.118-1.786-.355a4.601 4.601 0 0 1-2.429-2.433 4.482 4.482 0 0 1-.355-1.788c0-.628.118-1.22.355-1.779a4.468 4.468 0 0 1 .98-1.451c.415-.41.899-.737 1.45-.98a4.363 4.363 0 0 1 2.236-.337c.147.019.291.041.432.067.166.026.25-.045.25-.212v-1.807a.308.308 0 0 0-.077-.192.297.297 0 0 0-.173-.116 9.027 9.027 0 0 0-.883-.038c-.947 0-1.837.18-2.67.538a7.004 7.004 0 0 0-2.179 1.462 6.818 6.818 0 0 0-1.468 2.172 6.691 6.691 0 0 0-.538 2.673c0 .949.18 1.84.538 2.673.358.833.848 1.56 1.468 2.182a6.921 6.921 0 0 0 2.18 1.471 6.666 6.666 0 0 0 2.669.538h2.016zm4.416-.326a.227.227 0 0 0 .173-.087.272.272 0 0 0 .077-.183v-4.307h3.437v4.307c0 .065.025.125.077.183a.227.227 0 0 0 .173.087h1.766c.077 0 .14-.03.192-.087a.272.272 0 0 0 .077-.183v-9.46c0-.551-.106-1.07-.317-1.557a4.064 4.064 0 0 0-.854-1.27 4.057 4.057 0 0 0-1.268-.855 3.858 3.858 0 0 0-1.555-.317c-.55 0-1.069.106-1.555.317a4.177 4.177 0 0 0-1.277.856 3.983 3.983 0 0 0-.864 1.269 3.873 3.873 0 0 0-.317 1.557v9.46c0 .065.025.125.077.183a.246.246 0 0 0 .192.087h1.766zm3.687-6.865h-3.437v-2.865c0-.474.166-.878.5-1.211.332-.333.742-.5 1.228-.5.474 0 .877.167 1.21.5.332.333.499.737.499 1.211v2.865zm9.85 6.865c.18 0 .269-.084.269-.25v-1.77c0-.179-.09-.269-.269-.269h-3.168v-11.171a.272.272 0 0 0-.077-.183.227.227 0 0 0-.173-.086h-1.766a.257.257 0 0 0-.183.086.257.257 0 0 0-.086.183v13.21c0 .064.029.121.086.173a.271.271 0 0 0 .183.077h5.184z" fill="#025099" fill-rule="nonzero"/>
        <path fill="#F4BD03" d="M432 110.506 423.494 119 415 110.506l8.494-8.506zM65 110.506 56.494 119 48 110.506 56.494 102zM249 22.506 240.494 31 232 22.506 240.494 14zM249 196.506 240.494 205 232 196.506l8.494-8.506z"/>
    </g>
</svg>
