<svg width="409" height="93" viewBox="0 0 409 93" fill="none" xmlns="http://www.w3.org/2000/svg">
<g clip-path="url(#clip1_2106_18821)" transform="translate(-364,-237)">
<path d="M471.75 267.167H488.451C501.189 267.167 509.851 275.095 509.851 286.709C509.851 298.322 501.19 306.251 488.451 306.251H471.75V267.167ZM488.111 301.392C497.905 301.392 504.19 295.474 504.19 286.707C504.19 277.942 497.905 272.023 488.111 272.023H477.411V301.391H488.111V301.392Z" fill="white"/>
<path d="M558.599 301.392V306.25H529.84V267.166H557.807V272.023H535.502V284.027H555.373V288.772H535.502V301.39H558.599V301.392Z" fill="white"/>
<path d="M612.952 267.167L595.572 306.251H589.966L572.529 267.167H578.643L592.91 299.271L607.289 267.167H612.952Z" fill="white"/>
<path d="M625.693 286.707C625.693 275.15 634.639 266.719 646.699 266.719C652.813 266.719 658.134 268.785 661.759 272.804L658.078 276.321C655.022 273.139 651.286 271.688 646.927 271.688C637.981 271.688 631.355 278.053 631.355 286.707C631.355 295.362 637.981 301.727 646.927 301.727C651.286 301.727 655.022 300.219 658.078 297.037L661.759 300.555C658.136 304.574 652.813 306.696 646.641 306.696C634.639 306.695 625.693 298.266 625.693 286.707Z" fill="white"/>
<path d="M677.105 286.707C677.105 275.262 686.051 266.719 698.223 266.719C710.281 266.719 719.226 275.204 719.226 286.707C719.226 298.21 710.283 306.695 698.223 306.695C686.051 306.695 677.105 298.155 677.105 286.707ZM713.564 286.707C713.564 278.053 706.997 271.688 698.223 271.688C689.335 271.688 682.767 278.053 682.767 286.707C682.767 295.362 689.335 301.727 698.223 301.727C706.997 301.727 713.564 295.362 713.564 286.707Z" fill="white"/>
<path d="M773.294 267.167V306.251H768.652L744.874 277.105V306.25H739.212V267.166H743.854L767.632 296.31V267.167H773.294Z" fill="white"/>
<path d="M419.916 284.727L392.143 237.201L364.385 284.727L392.157 302.162L419.916 284.727ZM394.16 268.809V248.624L411.7 278.638L394.16 268.809ZM413.343 284.136L394.16 296.186V273.387L413.343 284.136ZM390.125 268.809L372.603 278.628L390.125 248.629V268.809ZM390.125 273.387V296.169L370.951 284.131L390.125 273.387Z" fill="white"/>
<path d="M392.142 307.796L364.399 290.36L392.143 330.349L419.915 290.36L392.142 307.796ZM389.974 311.152L390.124 311.247V320.394L378.874 304.176L389.974 311.152ZM405.434 304.169L394.16 320.402V311.246L394.309 311.152L405.434 304.169Z" fill="white"/>
</g>
</svg>
