<svg xmlns="http://www.w3.org/2000/svg" xmlns:xlink="http://www.w3.org/1999/xlink" width="42.589" height="32" viewBox="0 0 42.589 32"><defs><style>.a{fill:#fff;}.b{clip-path:url(#a);}</style><clipPath id="a"><rect class="a" width="42.589" height="32"/></clipPath></defs><g class="b" fill="white"><path d="M128.192,14.93l1.089-9.137,1.232,9.137Zm5.378,8.96v.017L130.94,2.619h-1.763l-2.556,21.066c-.151.757-.228,1.22-1.429,1.241v.389H128.3v-.389c-.88,0-1.278-.507-1.19-1.05l1.036-8.545h2.417l1.088,8.831c0,.53-.057.724-.7.765h-.307v.389h4.142v-.389h-.11a1.05,1.05,0,0,1-1.106-1.036" transform="translate(-109.074 2.004)"/><path d="M5.58.511c0,.365-.233.336-.421.22A4.291,4.291,0,0,0,2.926,0,2.666,2.666,0,0,0,0,2.825V19.69c.022,2.93,1.577,3.474,3.108,3.492a4.425,4.425,0,0,0,2.242-.754c.255-.1.535.134.535.567H6.38V12.932h1v-.418h-4.2v.418H4.391V21.5a1.272,1.272,0,0,1-1.264,1.311A1.249,1.249,0,0,1,1.921,21.5V2.156c0-.525.107-1.751,1-1.743.737,0,1.251.678,1.489,1.7a30.413,30.413,0,0,1,.405,4.761c0,.369.137.495.54.495h.778V.2H5.58Z" transform="translate(5.876 4.409)"/><path d="M287.887,14.131V3.034h1.039a1.431,1.431,0,0,1,1.433,1.459v9.1a1.276,1.276,0,0,1-1.331,1.353h-1.141Zm1.047-11.457H284.8v.36h1.087v21.3c-.025.461-.2.624-.867.65h-.22v.388h4.655v-.388h-.489c-.781-.027-1.069-.344-1.084-1.019V15.4h1.356c1.973,0,3.1-.945,3.1-2.211V5.074c0-1.265-.968-2.4-3.407-2.4" transform="translate(-255.628 1.954)"/></g></svg>