<svg xmlns="http://www.w3.org/2000/svg" xmlns:xlink="http://www.w3.org/1999/xlink" width="1920" height="90" viewBox="0 0 1920 90">
  <defs>
    <style>
      .cls-1, .cls-16, .cls-5 {
        fill: none;
      }

      .cls-2 {
        fill: #fff;
      }

      .cls-14, .cls-3, .cls-7, .cls-9 {
        isolation: isolate;
      }

      .cls-3 {
        clip-path: url(#clip-path);
      }

      .cls-17, .cls-4 {
        fill: #374ece;
      }

      .cls-16, .cls-5 {
        stroke: #fff;
      }

      .cls-6 {
        clip-path: url(#clip-path-2);
      }

      .cls-8 {
        clip-path: url(#clip-path-4);
      }

      .cls-9 {
        opacity: 0.6;
      }

      .cls-10 {
        clip-path: url(#clip-path-5);
      }

      .cls-11 {
        clip-path: url(#clip-path-6);
      }

      .cls-12 {
        clip-path: url(#clip-path-7);
      }

      .cls-13 {
        clip-path: url(#clip-path-8);
      }

      .cls-14 {
        opacity: 0.8;
      }

      .cls-15 {
        clip-path: url(#clip-path-10);
      }

      .cls-16 {
        stroke-width: 2px;
      }

      .cls-17 {
        opacity: 0;
      }
    </style>
    <clipPath id="clip-path">
      <rect id="Rectangle_2209" data-name="Rectangle 2209" class="cls-1" width="1920" height="90"/>
    </clipPath>
    <clipPath id="clip-path-2">
      <rect id="Rectangle_913" data-name="Rectangle 913" class="cls-2" width="139.823" height="43.004"/>
    </clipPath>
    <clipPath id="clip-path-4">
      <rect id="Rectangle_905" data-name="Rectangle 905" class="cls-2" width="59.938" height="35.885"/>
    </clipPath>
    <clipPath id="clip-path-5">
      <rect id="Rectangle_906" data-name="Rectangle 906" class="cls-2" width="2.604" height="1.776"/>
    </clipPath>
    <clipPath id="clip-path-6">
      <rect id="Rectangle_907" data-name="Rectangle 907" class="cls-2" width="1.736" height="2.446"/>
    </clipPath>
    <clipPath id="clip-path-7">
      <rect id="Rectangle_908" data-name="Rectangle 908" class="cls-2" width="84.829" height="43"/>
    </clipPath>
    <clipPath id="clip-path-8">
      <rect id="Rectangle_909" data-name="Rectangle 909" class="cls-2" width="2.875" height="4.063"/>
    </clipPath>
    <clipPath id="clip-path-10">
      <rect id="Rectangle_911" data-name="Rectangle 911" class="cls-2" width="11.571" height="21.465"/>
    </clipPath>
  </defs>
  <g id="_080422_F_F_main_event_US_GMB_MLT_acquisition_DESK" data-name="080422_F&amp;F_main_event_US_GMB_MLT_acquisition_DESK" class="cls-3">
    <g id="SLICE" transform="translate(0 -158)">
      <g id="SHAPES">
        <path id="W15_22_SP1_GOL_OF_COLOR_CRUSH_2_056_WB_copy" data-name="W15_22_SP1_GOL_OF_COLOR_CRUSH_2_056_WB copy" class="cls-4" d="M0,0H1920V90H0Z" transform="translate(0 158)"/>
      </g>
      <g id="svg">
        <g id="TEXT" transform="translate(-321.875)">
          <path id="Path_4701" data-name="Path 4701" class="cls-2" d="M12.15-8.982c-.4-2.736-2.61-4.176-5.292-4.176C2.9-13.158.774-10.116.774-6.39c0,3.744,1.944,6.7,5.94,6.7,3.24,0,5.238-1.944,5.562-5.148h-1.71c-.166,2.12-1.458,3.7-3.708,3.7-3.078,0-4.374-2.448-4.374-5.382,0-2.682,1.3-5.2,4.356-5.2a3.386,3.386,0,0,1,3.6,2.736Zm1.17,2.556c0,3.492,2.07,6.732,6.156,6.732s6.156-3.24,6.156-6.732-2.07-6.732-6.156-6.732S13.32-9.918,13.32-6.426Zm1.71,0c0-2.592,1.314-5.292,4.446-5.292s4.446,2.7,4.446,5.292-1.314,5.292-4.446,5.292-4.446-2.7-4.446-5.292ZM27.36,0h4.41c4.284,0,6.174-2.43,6.174-6.732,0-4.14-2.214-6.12-6.174-6.12H27.36Zm1.71-11.412h2.88c3.15,0,4.284,1.854,4.284,4.914,0,4.734-3.15,5.058-4.32,5.058H29.07ZM39.672,0H48.6V-1.44H41.382V-5.886H48.06v-1.44H41.382v-4.086h7.164v-1.44H39.672ZM54.954,0h1.71V-5.886h5.9v-1.44h-5.9v-4.086H63.4v-1.44H54.954ZM66.636-6.93v-4.482h4.248a2.033,2.033,0,0,1,1.671.551,2.033,2.033,0,0,1,.615,1.649c0,1.872-1.368,2.286-2.97,2.286ZM64.926,0h1.71V-5.49h4.176c1.656,0,1.962,1.062,2.142,2.322.252,1.26-.018,2.646.468,3.168H75.33c-.72-.882-.648-2.286-.756-3.546-.126-1.26-.432-2.358-1.926-2.646v-.036A3.083,3.083,0,0,0,74.88-9.486c0-2.052-1.494-3.366-3.906-3.366H64.926ZM76.968,0h1.71V-12.852h-1.71ZM81.2,0h8.928V-1.44h-7.22V-5.886h6.678v-1.44H82.908v-4.086h7.164v-1.44H81.2ZM91.82,0h1.62V-10.314h.036L100.188,0h1.872V-12.852h-1.62V-2.43h-.04L93.636-12.852H91.818Zm12.654,0h4.41c4.284,0,6.174-2.43,6.174-6.732,0-4.14-2.214-6.12-6.174-6.12h-4.41Zm1.71-11.412h2.88c3.15,0,4.284,1.854,4.284,4.914,0,4.734-3.15,5.058-4.32,5.058h-2.844Z" transform="translate(936.166 210)"/>
          <path id="Path_4700" data-name="Path 4700" class="cls-2" d="M12.15-8.982c-.4-2.736-2.61-4.176-5.292-4.176C2.9-13.158.774-10.116.774-6.39c0,3.744,1.944,6.7,5.94,6.7,3.24,0,5.238-1.944,5.562-5.148h-1.71c-.166,2.12-1.458,3.7-3.708,3.7-3.078,0-4.374-2.448-4.374-5.382,0-2.682,1.3-5.2,4.356-5.2a3.386,3.386,0,0,1,3.6,2.736Zm1.17,2.556c0,3.492,2.07,6.732,6.156,6.732s6.156-3.24,6.156-6.732-2.07-6.732-6.156-6.732S13.32-9.918,13.32-6.426Zm1.71,0c0-2.592,1.314-5.292,4.446-5.292s4.446,2.7,4.446,5.292-1.314,5.292-4.446,5.292-4.446-2.7-4.446-5.292ZM27.36,0h4.41c4.284,0,6.174-2.43,6.174-6.732,0-4.14-2.214-6.12-6.174-6.12H27.36Zm1.71-11.412h2.88c3.15,0,4.284,1.854,4.284,4.914,0,4.734-3.15,5.058-4.32,5.058H29.07ZM39.672,0H48.6V-1.44H41.382V-5.886H48.06v-1.44H41.382v-4.086h7.164v-1.44H39.672ZM54.954,0h1.71V-5.886h5.9v-1.44h-5.9v-4.086H63.4v-1.44H54.954Zm7.452,0H64.17l1.44-3.87h5.436L72.45,0h1.89L69.318-12.852h-1.89Zm5.922-11.3h.036l2.142,5.99H66.15ZM75.276,0H76.9V-10.692h.036L80.946,0H82.4l4.014-10.692h.036V0h1.62V-12.852H85.73l-4.068,10.8-4.05-10.8h-2.34ZM90.63,0h1.71V-12.852H90.63Zm4.23,0h8.514V-1.44h-6.8V-12.852H94.86Zm17.874-12.852H110.79l-3.762,6.12-3.852-6.12h-2.034l4.968,7.6V0h1.71V-5.256Z" transform="translate(1474.938 210)"/>
          <path id="Path_4699" data-name="Path 4699" class="cls-2" d="M10.894-18.434H9.126L.728-6.448v2.132H8.814V0h2.08V-4.316h2.5v-1.95h-2.5ZM2.626-6.266l6.136-9.022h.052v9.022ZM15.808-9.048c0,4.056.364,9.36,6.136,9.36s6.136-5.3,6.136-9.36c0-4.082-.364-9.386-6.136-9.386S15.808-13.13,15.808-9.048Zm2.34-.026c0-2.73.026-7.41,3.8-7.41s3.8,4.68,3.8,7.41c0,2.756-.026,7.436-3.8,7.436s-3.8-4.68-3.8-7.436Zm26.52,4.238c0,2.808,1.066,5.148,4.212,5.148,3.016,0,4.16-2.522,4.16-5.226,0-2.834-.936-5.2-4.16-5.2-3.2,0-4.212,2.5-4.212,5.278Zm1.95-.052c0-1.56.338-3.8,2.262-3.8,1.95,0,2.21,2.236,2.21,3.77,0,1.612-.312,3.8-2.288,3.8-1.95,0-2.184-2.262-2.184-3.77ZM31.824-13.156c0,2.808,1.066,5.148,4.212,5.148,3.016,0,4.16-2.522,4.16-5.226,0-2.834-.936-5.2-4.16-5.2C32.838-18.434,31.824-15.938,31.824-13.156Zm1.95-.052c0-1.56.338-3.8,2.262-3.8,1.95,0,2.21,2.236,2.21,3.77,0,1.612-.312,3.8-2.288,3.8C34.008-9.438,33.774-11.7,33.774-13.208ZM34.32.572h2.236L50.518-18.772h-2.21ZM64.168-9.282c0,5.044,2.99,9.724,8.892,9.724s8.892-4.68,8.892-9.724-2.99-9.724-8.892-9.724S64.168-14.326,64.168-9.282Zm2.47,0c0-3.744,1.9-7.644,6.422-7.644s6.422,3.9,6.422,7.644-1.9,7.644-6.422,7.644S66.638-5.538,66.638-9.282ZM85.228,0H87.7V-8.5h8.528v-2.08H87.7v-5.9h9.724v-2.08h-12.2Zm15.184,0h2.47V-8.5h8.528v-2.08h-8.528v-5.9h9.724v-2.08H100.412Zm22.672,0h12.9V-2.08h-10.43V-8.5H135.2v-2.08h-9.646v-5.9H135.9v-2.08H123.084ZM153.14-18.564h-2.574L145.21-2.47h-.052l-5.3-16.094H137.18L143.728,0h2.808ZM155.376,0h12.9V-2.08h-10.43V-8.5h9.646v-2.08h-9.646v-5.9h10.348v-2.08H155.376Zm18.616-10.01v-6.474h6.136c2.314,0,3.3,1.352,3.3,3.172,0,2.7-1.976,3.3-4.29,3.3ZM171.522,0h2.47V-7.93h6.032c2.392,0,2.834,1.534,3.094,3.354.364,1.82-.026,3.822.676,4.576h2.756c-1.04-1.274-.936-3.3-1.092-5.122-.182-1.82-.624-3.406-2.782-3.822V-9c2.236-.624,3.224-2.47,3.224-4.706,0-2.964-2.158-4.862-5.642-4.862h-8.736ZM203.4-18.564h-2.81l-5.434,8.84-5.564-8.84h-2.938L193.83-7.592V0h2.47V-7.592ZM209.95,0h2.47V-16.484h6.188v-2.08H203.762v2.08h6.188Zm10.972,0h2.47V-8.5h9.776V0h2.47V-18.564h-2.47v7.982h-9.776v-7.982h-2.47Zm19.136,0h2.47V-18.564h-2.47Zm6.864,0h2.34V-14.9h.052l9.7,14.9h2.7V-18.564h-2.34V-3.51h-.052l-9.776-15.054H246.92Zm33.592,0h1.56V-9.776h-8.138V-7.7h5.928a5.592,5.592,0,0,1-1.583,4.4,5.592,5.592,0,0,1-4.371,1.659c-4.134,0-6.37-3.536-6.37-7.41,0-3.978,1.872-7.878,6.37-7.878,2.756,0,5.018,1.274,5.512,4.082h2.47c-.7-4.342-3.926-6.162-7.982-6.162-5.876,0-8.84,4.68-8.84,10.088,0,4.836,3.3,9.36,8.84,9.36a7.267,7.267,0,0,0,5.954-2.756Z" transform="translate(633.521 212.5)"/>
          <path id="Path_4698" data-name="Path 4698" class="cls-2" d="M2.028,0h12.9V-2.08H4.5V-8.5h9.646v-2.08H4.5v-5.9H14.846v-2.08H2.028ZM16.12,0H18.9l5.15-7.67L29.042,0h3.016L25.532-9.542l6.136-9.022H28.912L24.076-11.31l-4.628-7.254H16.484l6.11,9.022ZM38.532,0H41V-16.484h6.19v-2.08H32.344v2.08h6.188ZM51.974-10.01v-6.474H58.11c2.314,0,3.3,1.352,3.3,3.172,0,2.7-1.976,3.3-4.29,3.3ZM49.5,0h2.47V-7.93H58c2.4,0,2.838,1.53,3.1,3.354.364,1.82-.026,3.822.676,4.576h2.756c-1.04-1.274-.936-3.3-1.092-5.122-.182-1.82-.624-3.406-2.782-3.822V-9c2.236-.624,3.224-2.47,3.224-4.706,0-2.964-2.158-4.862-5.642-4.862H49.5ZM65.36,0h2.548l2.08-5.59H77.84L79.872,0H82.6L75.348-18.564h-2.73Zm8.554-16.328h.052l3.1,8.658H70.772ZM99.4-18.434H97.71c-.494,2.782-2.782,3.458-5.3,3.458v1.768h4.784V0H99.4Zm6.552,9.386c0,4.056.364,9.36,6.136,9.36s6.136-5.3,6.136-9.36c0-4.082-.364-9.386-6.136-9.386s-6.138,5.3-6.138,9.386Zm2.34-.026c0-2.73.026-7.41,3.8-7.41s3.8,4.68,3.8,7.41c0,2.756-.026,7.436-3.8,7.436s-3.8-4.68-3.8-7.436Zm26.52,4.238c0,2.808,1.066,5.148,4.212,5.148,3.016,0,4.16-2.522,4.16-5.226,0-2.834-.936-5.2-4.16-5.2-3.2,0-4.214,2.5-4.214,5.278Zm1.95-.052c0-1.56.338-3.8,2.262-3.8,1.95,0,2.21,2.236,2.21,3.77,0,1.612-.312,3.8-2.288,3.8-1.952,0-2.186-2.262-2.186-3.77Zm-14.794-8.268c0,2.808,1.066,5.148,4.212,5.148,3.016,0,4.16-2.522,4.16-5.226,0-2.834-.936-5.2-4.16-5.2-3.2,0-4.214,2.5-4.214,5.278Zm1.95-.052c0-1.56.338-3.8,2.262-3.8,1.95,0,2.21,2.236,2.21,3.77,0,1.612-.312,3.8-2.288,3.8-1.952,0-2.186-2.262-2.186-3.77Zm.546,13.78H126.7l13.96-19.344h-2.21ZM154.31-9.282c0,5.044,2.99,9.724,8.892,9.724s8.892-4.68,8.892-9.724-2.99-9.724-8.892-9.724S154.31-14.326,154.31-9.282Zm2.47,0c0-3.744,1.9-7.644,6.422-7.644s6.422,3.9,6.422,7.644-1.9,7.644-6.422,7.644S156.78-5.538,156.78-9.282ZM175.37,0h2.47V-8.5h8.528v-2.08H177.84v-5.9h9.724v-2.08H175.37Zm15.184,0h2.47V-8.5h8.528v-2.08h-8.528v-5.9h9.724v-2.08H190.554Z" transform="translate(1256.938 211.5)"/>
          <path id="Path_4697" data-name="Path 4697" class="cls-2" d="M1.232,0h1.44V-9.168H2.7L8.672,0h1.664V-11.424H8.9V-2.16H8.864L2.848-11.424H1.232ZM11.808-4.128c0,2.416,1.392,4.32,4.016,4.32s4.016-1.9,4.016-4.32-1.392-4.336-4.016-4.336S11.808-6.56,11.808-4.128Zm1.44,0c0-2.016,1.152-3.136,2.576-3.136S18.4-6.144,18.4-4.128c0,2-1.152,3.12-2.576,3.12s-2.576-1.12-2.576-3.12Zm9.76-6.624h-1.36v2.48H20.24v1.2h1.408v5.264c0,1.52.56,1.808,1.968,1.808h1.04V-1.2h-.624c-.848,0-1.024-.112-1.024-.736V-7.072h1.648v-1.2H23.008ZM35.088-2.88c0,.752-.736,1.872-2.528,1.872-.832,0-1.6-.32-1.6-1.216,0-1.008.768-1.328,1.664-1.488a7,7,0,0,0,2.464-.56ZM37.3-1.088a1.168,1.168,0,0,1-.416.08c-.432,0-.432-.288-.432-.928V-6.192c0-1.936-1.616-2.272-3.1-2.272-1.84,0-3.424.72-3.5,2.768H31.2c.064-1.216.912-1.568,2.064-1.568.864,0,1.84.192,1.84,1.376,0,1.024-1.28.928-2.784,1.216-1.408.272-2.8.672-2.8,2.544,0,1.648,1.232,2.32,2.736,2.32a3.671,3.671,0,0,0,2.912-1.28c0,.9.448,1.28,1.152,1.28a1.834,1.834,0,0,0,.98-.224ZM44.112-6.16v-3.984h3.776a1.807,1.807,0,0,1,1.484.489,1.807,1.807,0,0,1,.548,1.463c0,1.664-1.216,2.032-2.64,2.032ZM42.592,0h1.52V-4.88h3.712c1.472,0,1.744.944,1.9,2.064C49.948-1.7,49.708-.464,50.14,0h1.7c-.64-.784-.576-2.032-.672-3.152-.112-1.12-.384-2.1-1.712-2.352v-.032a2.74,2.74,0,0,0,1.984-2.9c0-1.824-1.328-2.992-3.472-2.992H42.592ZM58.72-2.624a1.993,1.993,0,0,1-2.144,1.616,2.437,2.437,0,0,1-1.925-.756A2.437,2.437,0,0,1,54-3.728h6.192c.08-2-.816-4.736-3.744-4.736a3.981,3.981,0,0,0-3.888,4.3C52.64-1.632,53.888.192,56.528.192a3.335,3.335,0,0,0,3.536-2.816ZM54-4.928a2.356,2.356,0,0,1,2.368-2.336,2.38,2.38,0,0,1,2.384,2.336ZM72.112-8.272H70.7L68.848-1.5h-.032L67.088-8.272H65.6L63.936-1.5H63.9L62.032-8.272h-1.5L63.184,0h1.472L66.32-6.576h.032L68.032,0h1.44Zm6.1,5.392c0,.752-.736,1.872-2.528,1.872-.832,0-1.6-.32-1.6-1.216,0-1.008.768-1.328,1.664-1.488a7,7,0,0,0,2.464-.56ZM80.42-1.088a1.168,1.168,0,0,1-.416.08c-.432,0-.432-.288-.432-.928V-6.192c0-1.936-1.616-2.272-3.1-2.272-1.84,0-3.424.72-3.5,2.768h1.36c.064-1.216.912-1.568,2.064-1.568.864,0,1.84.192,1.84,1.376,0,1.024-1.28.928-2.784,1.216-1.408.272-2.8.672-2.8,2.544,0,1.648,1.232,2.32,2.736,2.32A3.671,3.671,0,0,0,78.3-1.088c0,.9.448,1.28,1.152,1.28a1.834,1.834,0,0,0,.976-.224ZM81.312,0h1.36V-3.68c0-2.1.8-3.344,2.992-3.344v-1.44a3.008,3.008,0,0,0-3.04,1.936h-.032V-8.272h-1.28Zm12.16-11.424h-1.36v4.256H92.08a3.168,3.168,0,0,0-2.672-1.3c-2.528,0-3.776,1.968-3.776,4.3S86.9.192,89.44.192A2.784,2.784,0,0,0,92.08-1.12h.032V0h1.36Zm-6.4,7.36c0-1.616.624-3.2,2.48-3.2,1.872,0,2.608,1.5,2.608,3.136,0,1.552-.7,3.12-2.528,3.12-1.76,0-2.56-1.5-2.56-3.056ZM94.72-2.608c.08,2.048,1.648,2.8,3.5,2.8,1.68,0,3.52-.64,3.52-2.608,0-1.6-1.344-2.048-2.7-2.352-1.264-.3-2.7-.464-2.7-1.44,0-.832.944-1.056,1.76-1.056.9,0,1.824.336,1.92,1.392h1.36c-.112-2.016-1.568-2.592-3.392-2.592-1.44,0-3.088.688-3.088,2.352,0,1.584,1.36,2.032,2.7,2.336,1.36.3,2.7.48,2.7,1.536,0,1.04-1.152,1.232-2,1.232-1.12,0-2.176-.384-2.224-1.6ZM107.312,0h1.44V-9.5h.032L112.352,0h1.3l3.568-9.5h.032V0h1.44V-11.424h-2.08L113-1.824l-3.6-9.6h-2.08Zm19.072-2.624a1.993,1.993,0,0,1-2.144,1.616,2.437,2.437,0,0,1-1.925-.756,2.437,2.437,0,0,1-.65-1.964h6.192c.08-2-.816-4.736-3.744-4.736a3.981,3.981,0,0,0-3.888,4.3c.08,2.528,1.328,4.352,3.968,4.352a3.335,3.335,0,0,0,3.536-2.816Zm-4.72-2.3a2.356,2.356,0,0,1,2.368-2.336,2.38,2.38,0,0,1,2.384,2.336ZM128.944,0h1.36V-5.152a2.231,2.231,0,0,1,2.208-2.112c1.216,0,1.552.768,1.552,1.84V0h1.36V-5.152a2,2,0,0,1,.6-1.549,2,2,0,0,1,1.562-.563c1.328,0,1.6.816,1.6,1.84V0h1.36V-6.064c0-1.712-1.1-2.4-2.752-2.4A3.061,3.061,0,0,0,135.2-7.056a2.194,2.194,0,0,0-2.272-1.408,3.049,3.049,0,0,0-2.672,1.408h-.032V-8.272h-1.28ZM148.72-4.208c0,1.616-.624,3.2-2.48,3.2-1.872,0-2.608-1.5-2.608-3.136,0-1.552.7-3.12,2.528-3.12C147.92-7.264,148.72-5.76,148.72-4.208ZM142.32,0h1.36V-1.1h.032A3.168,3.168,0,0,0,146.384.2c2.528,0,3.776-1.968,3.776-4.3s-1.264-4.352-3.808-4.352a2.784,2.784,0,0,0-2.64,1.312h-.032v-4.272h-1.36Zm14.832-2.624a1.993,1.993,0,0,1-2.144,1.616,2.437,2.437,0,0,1-1.926-.756,2.437,2.437,0,0,1-.651-1.964h6.192c.08-2-.816-4.736-3.744-4.736a3.981,3.981,0,0,0-3.888,4.3c.08,2.528,1.328,4.352,3.968,4.352a3.335,3.335,0,0,0,3.54-2.812Zm-4.72-2.3a2.356,2.356,0,0,1,2.368-2.34,2.38,2.38,0,0,1,2.384,2.336ZM159.664,0h1.36V-3.68c0-2.1.8-3.344,2.992-3.344v-1.44a3.008,3.008,0,0,0-3.04,1.936h-.032V-8.272h-1.28Zm6.272-7.856c-.016-1.472.7-2.64,2.224-2.64a1.831,1.831,0,0,1,1.381.51,1.831,1.831,0,0,1,.559,1.362,2.953,2.953,0,0,1-1.248,2.416,3.631,3.631,0,0,0-1.44,2.672v.752h1.36v-.624a3.249,3.249,0,0,1,1.392-2.368A3.537,3.537,0,0,0,171.54-8.5a3.08,3.08,0,0,0-.958-2.37,3.08,3.08,0,0,0-2.418-.83,3.5,3.5,0,0,0-2.658,1.112,3.505,3.505,0,0,0-.926,2.728ZM167.184,0h1.776V-1.776h-1.776ZM10.192,17h.96V10.984H6.144v1.28H9.792a3.441,3.441,0,0,1-3.664,3.728c-2.544,0-3.92-2.176-3.92-4.56,0-2.448,1.152-4.848,3.92-4.848,1.7,0,3.088.784,3.392,2.512h1.52c-.432-2.672-2.416-3.8-4.912-3.8C2.512,5.3.688,8.18.688,11.508a5.475,5.475,0,0,0,5.44,5.76,4.472,4.472,0,0,0,3.664-1.7Zm8.368-2.624a1.993,1.993,0,0,1-2.144,1.616,2.437,2.437,0,0,1-2.576-2.72h6.192c.08-2-.816-4.736-3.744-4.736a3.981,3.981,0,0,0-3.888,4.3c.08,2.528,1.328,4.352,3.968,4.352A3.335,3.335,0,0,0,19.9,14.376Zm-4.72-2.3A2.356,2.356,0,0,1,16.208,9.74a2.38,2.38,0,0,1,2.384,2.336Zm9.168-5.824h-1.36v2.48H20.24v1.2h1.408V15.2c0,1.52.56,1.808,1.968,1.808h1.04V15.8h-.624c-.848,0-1.024-.112-1.024-.736V9.928h1.648v-1.2H23.008ZM35.68,14.376a1.993,1.993,0,0,1-2.144,1.616,2.437,2.437,0,0,1-2.576-2.72h6.192c.08-2-.816-4.736-3.744-4.736a3.981,3.981,0,0,0-3.888,4.3c.08,2.528,1.328,4.352,3.968,4.352a3.335,3.335,0,0,0,3.536-2.816Zm-4.72-2.3A2.356,2.356,0,0,1,33.328,9.74a2.38,2.38,0,0,1,2.384,2.336ZM37.36,17h1.648l2.3-3.424L43.616,17H45.36l-3.2-4.464,2.848-3.808H43.376l-2.064,2.9-1.984-2.9H37.584l2.88,3.92ZM48.1,6.248H46.74v2.48H45.328v1.2h1.408v5.264c0,1.52.56,1.808,1.968,1.808h1.04V15.8H49.12c-.848,0-1.024-.112-1.024-.736V9.928h1.648v-1.2H48.1ZM50.88,17h1.36V13.32c0-2.1.8-3.344,2.992-3.344V8.536a3.008,3.008,0,0,0-3.04,1.936H52.16V8.728H50.88Zm10.176-2.88c0,.752-.736,1.872-2.528,1.872-.832,0-1.6-.32-1.6-1.216,0-1.008.768-1.328,1.664-1.488a7,7,0,0,0,2.464-.56Zm2.208,1.792a1.168,1.168,0,0,1-.416.08c-.432,0-.432-.288-.432-.928V10.808c0-1.936-1.616-2.272-3.1-2.272-1.84,0-3.424.72-3.5,2.768h1.36c.064-1.216.912-1.568,2.064-1.568.864,0,1.84.192,1.84,1.376,0,1.024-1.28.928-2.784,1.216-1.408.272-2.8.672-2.8,2.544,0,1.648,1.232,2.32,2.736,2.32a3.671,3.671,0,0,0,2.912-1.28c0,.9.448,1.28,1.152,1.28a1.834,1.834,0,0,0,.976-.224ZM73.008,5.656h-1.04c-.3,1.712-1.712,2.128-3.264,2.128V8.872h2.944V17h1.36Zm3.552,5.776c0,2.5.224,5.76,3.776,5.76s3.776-3.264,3.776-5.76c0-2.512-.224-5.776-3.776-5.776S76.56,8.92,76.56,11.432ZM78,11.416c0-1.68.016-4.56,2.336-4.56s2.336,2.88,2.336,4.56c0,1.7-.016,4.576-2.336,4.576S78,13.112,78,11.416Zm15.84,2.608c0,1.728.656,3.168,2.592,3.168,1.856,0,2.56-1.552,2.56-3.216,0-1.744-.576-3.2-2.56-3.2C94.464,10.776,93.84,12.312,93.84,14.024Zm1.2-.032c0-.96.208-2.336,1.392-2.336,1.2,0,1.36,1.376,1.36,2.32,0,.992-.192,2.336-1.408,2.336-1.2,0-1.344-1.392-1.344-2.32ZM85.936,8.9c0,1.728.656,3.168,2.592,3.168,1.856,0,2.56-1.552,2.56-3.216,0-1.744-.576-3.2-2.56-3.2C86.56,5.656,85.936,7.192,85.936,8.9Zm1.2-.032c0-.96.208-2.336,1.392-2.336,1.2,0,1.36,1.376,1.36,2.32,0,.992-.192,2.336-1.408,2.336-1.2,0-1.344-1.388-1.344-2.316Zm.336,8.48h1.376l8.592-11.9H96.08Zm17.376-4.48c0,2.416,1.392,4.32,4.016,4.32s4.016-1.9,4.016-4.32-1.392-4.336-4.016-4.336-4.016,1.908-4.016,4.34Zm1.44,0c0-2.016,1.152-3.136,2.576-3.136s2.576,1.12,2.576,3.136c0,2-1.152,3.12-2.576,3.12s-2.576-1.116-2.576-3.116ZM114.72,17h1.36V9.928h1.6v-1.2h-1.6V7.576c0-.72.384-.928,1.04-.928a2.551,2.551,0,0,1,.768.112V5.576a3.344,3.344,0,0,0-.88-.128c-1.488,0-2.288.7-2.288,2.048V8.728h-1.392v1.2h1.392Zm4.128,0h1.36V9.928h1.6v-1.2h-1.6V7.576c0-.72.384-.928,1.04-.928a2.551,2.551,0,0,1,.768.112V5.576a3.344,3.344,0,0,0-.88-.128c-1.488,0-2.288.7-2.288,2.048V8.728h-1.392v1.2h1.392Zm18.816-8.272h-1.408L134.4,15.5h-.032L132.64,8.728h-1.488L129.488,15.5h-.032l-1.872-6.768h-1.5L128.736,17h1.472l1.664-6.576h.032L133.584,17h1.44ZM138.64,17H140V12.328a2.325,2.325,0,0,1,2.448-2.592,1.559,1.559,0,0,1,1.68,1.664V17h1.36V11.56c0-1.776-.672-3.024-2.848-3.024a2.8,2.8,0,0,0-2.608,1.408H140V5.576h-1.36Zm14.288-2.624a1.993,1.993,0,0,1-2.144,1.616,2.437,2.437,0,0,1-2.576-2.72H154.4c.08-2-.816-4.736-3.744-4.736a3.981,3.981,0,0,0-3.888,4.3c.08,2.528,1.328,4.352,3.968,4.352a3.335,3.335,0,0,0,3.536-2.816Zm-4.72-2.3a2.356,2.356,0,0,1,2.368-2.336,2.38,2.38,0,0,1,2.384,2.336ZM155.488,17h1.36V12.328A2.325,2.325,0,0,1,159.3,9.736a1.559,1.559,0,0,1,1.68,1.664V17h1.36V11.56c0-1.776-.672-3.024-2.848-3.024a2.879,2.879,0,0,0-2.688,1.5h-.032V8.728h-1.28ZM175.04,8.728H173.6L171.28,15.5h-.032l-2.416-6.768H167.3l3.28,8.224-.56,1.408a1.175,1.175,0,0,1-1.12.752,2.783,2.783,0,0,1-.8-.192v1.248a2.708,2.708,0,0,0,.944.144c1.216,0,1.776-.592,2.4-2.208Zm.384,4.144c0,2.416,1.392,4.32,4.016,4.32s4.016-1.9,4.016-4.32-1.392-4.336-4.016-4.336S175.424,10.44,175.424,12.872Zm1.44,0c0-2.016,1.152-3.136,2.576-3.136s2.576,1.12,2.576,3.136c0,2-1.152,3.12-2.576,3.12S176.864,14.872,176.864,12.872Zm14.72-4.144h-1.36V13.4a2.325,2.325,0,0,1-2.448,2.592,1.559,1.559,0,0,1-1.68-1.664v-5.6h-1.36v5.44c0,1.776.672,3.024,2.848,3.024a2.879,2.879,0,0,0,2.688-1.5h.032V17h1.28Zm5.328,5.664c.08,2.048,1.648,2.8,3.5,2.8,1.68,0,3.52-.64,3.52-2.608,0-1.6-1.344-2.048-2.7-2.352-1.264-.3-2.7-.464-2.7-1.44,0-.832.944-1.056,1.76-1.056.9,0,1.824.336,1.92,1.392h1.36C203.46,9.112,202,8.536,200.18,8.536c-1.44,0-3.088.688-3.088,2.352,0,1.584,1.36,2.032,2.7,2.336,1.36.3,2.7.48,2.7,1.536,0,1.04-1.152,1.232-2,1.232-1.12,0-2.176-.384-2.224-1.6ZM205.12,17h1.36V12.328a2.325,2.325,0,0,1,2.448-2.592,1.559,1.559,0,0,1,1.68,1.664V17h1.36V11.56c0-1.776-.672-3.024-2.848-3.024a2.8,2.8,0,0,0-2.608,1.408h-.032V5.576h-1.36Zm8.128-4.128c0,2.416,1.392,4.32,4.016,4.32s4.016-1.9,4.016-4.32-1.392-4.336-4.016-4.336S213.248,10.44,213.248,12.872Zm1.44,0c0-2.016,1.152-3.136,2.576-3.136s2.576,1.12,2.576,3.136c0,2-1.152,3.12-2.576,3.12S214.688,14.872,214.688,12.872Zm14.32-.08c0,1.616-.624,3.2-2.48,3.2-1.872,0-2.608-1.5-2.608-3.136,0-1.552.7-3.12,2.528-3.12C228.208,9.736,229.008,11.24,229.008,12.792Zm-6.4,7.376h1.36V15.9H224a3.168,3.168,0,0,0,2.672,1.3c2.528,0,3.776-1.968,3.776-4.3s-1.264-4.352-3.808-4.352a2.784,2.784,0,0,0-2.64,1.3h-.032V8.728h-1.36ZM6.144,31.12c0,.752-.736,1.872-2.528,1.872-.832,0-1.6-.32-1.6-1.216,0-1.008.768-1.328,1.664-1.488a7,7,0,0,0,2.464-.56Zm2.208,1.792a1.167,1.167,0,0,1-.416.08c-.432,0-.432-.288-.432-.928V27.808c0-1.936-1.616-2.272-3.1-2.272-1.84,0-3.424.72-3.5,2.768h1.36c.064-1.216.912-1.568,2.064-1.568.864,0,1.84.192,1.84,1.376,0,1.024-1.28.928-2.784,1.216-1.408.272-2.8.672-2.8,2.544,0,1.648,1.232,2.32,2.736,2.32a3.671,3.671,0,0,0,2.912-1.28c0,.9.448,1.28,1.152,1.28a1.834,1.834,0,0,0,.976-.224Zm.416-1.52c.08,2.048,1.648,2.8,3.5,2.8,1.68,0,3.52-.64,3.52-2.608,0-1.6-1.344-2.048-2.7-2.352-1.264-.3-2.7-.464-2.7-1.44,0-.832.944-1.056,1.76-1.056.9,0,1.824.336,1.92,1.392h1.36c-.112-2.016-1.568-2.592-3.392-2.592-1.44,0-3.088.688-3.088,2.352,0,1.584,1.36,2.032,2.7,2.336,1.36.3,2.7.48,2.7,1.536,0,1.04-1.152,1.232-2,1.232-1.12,0-2.176-.384-2.224-1.6Zm17.456-.272c0,.752-.736,1.872-2.528,1.872-.832,0-1.6-.32-1.6-1.216,0-1.008.768-1.328,1.664-1.488a7,7,0,0,0,2.464-.56Zm2.208,1.792a1.167,1.167,0,0,1-.416.08c-.432,0-.432-.288-.432-.928V27.808c0-1.936-1.616-2.272-3.1-2.272-1.84,0-3.424.72-3.5,2.768h1.36c.064-1.216.912-1.568,2.064-1.568.864,0,1.84.192,1.84,1.376,0,1.024-1.28.928-2.784,1.216-1.408.272-2.8.672-2.8,2.544,0,1.648,1.232,2.32,2.736,2.32a3.671,3.671,0,0,0,2.912-1.28c0,.9.448,1.28,1.152,1.28a1.834,1.834,0,0,0,.976-.224Zm6.816-5.072V23.856h3.776a1.807,1.807,0,0,1,2.032,1.952c0,1.664-1.216,2.032-2.64,2.032ZM33.728,34h1.52V29.12H38.96c1.472,0,1.744.944,1.9,2.064.224,1.12-.016,2.352.416,2.816h1.7c-.64-.784-.576-2.032-.672-3.152-.112-1.12-.384-2.1-1.712-2.352v-.032a2.74,2.74,0,0,0,1.984-2.9c0-1.824-1.328-2.992-3.472-2.992H33.728Zm16.128-2.624a1.993,1.993,0,0,1-2.144,1.616,2.437,2.437,0,0,1-2.576-2.72h6.192c.08-2-.816-4.736-3.744-4.736a3.981,3.981,0,0,0-3.888,4.3c.08,2.528,1.328,4.352,3.968,4.352A3.335,3.335,0,0,0,51.2,31.376Zm-4.72-2.3a2.356,2.356,0,0,1,2.364-2.34,2.38,2.38,0,0,1,2.384,2.336Zm18.112-3.344H61.84L59.984,32.5h-.032l-1.728-6.768H56.736L55.072,32.5H55.04l-1.872-6.768h-1.5L54.32,34h1.472l1.664-6.576h.032L59.168,34h1.44Zm6.1,5.392c0,.752-.736,1.872-2.528,1.872-.832,0-1.6-.32-1.6-1.216,0-1.008.768-1.328,1.664-1.488a7,7,0,0,0,2.464-.56Zm2.208,1.792a1.167,1.167,0,0,1-.416.08c-.432,0-.432-.288-.432-.928v-4.26c0-1.936-1.616-2.272-3.1-2.272-1.84,0-3.424.72-3.5,2.768h1.36c.064-1.216.912-1.568,2.064-1.568.864,0,1.84.192,1.84,1.376,0,1.024-1.28.928-2.784,1.216-1.408.272-2.8.672-2.8,2.544,0,1.648,1.232,2.32,2.736,2.32a3.671,3.671,0,0,0,2.912-1.28c0,.9.448,1.28,1.152,1.28a1.834,1.834,0,0,0,.976-.224Zm.9,1.088h1.36V30.32c0-2.1.8-3.344,2.992-3.344v-1.44a3.008,3.008,0,0,0-3.04,1.936h-.032V25.728h-1.28ZM84.616,22.58h-1.36v4.256h-.032a3.168,3.168,0,0,0-2.672-1.3c-2.528,0-3.776,1.968-3.776,4.3s1.264,4.352,3.808,4.352a2.784,2.784,0,0,0,2.64-1.312h.032V34h1.36Zm-6.4,7.36c0-1.616.624-3.2,2.48-3.2,1.872,0,2.608,1.5,2.608,3.136,0,1.552-.7,3.12-2.528,3.12-1.768,0-2.568-1.508-2.568-3.06ZM85.864,31.4c.08,2.048,1.648,2.8,3.5,2.8,1.68,0,3.52-.64,3.52-2.608,0-1.6-1.344-2.048-2.7-2.352-1.264-.3-2.7-.464-2.7-1.44,0-.832.944-1.056,1.76-1.056.9,0,1.824.336,1.92,1.392h1.36c-.112-2.016-1.568-2.592-3.392-2.592-1.44,0-3.088.688-3.088,2.352,0,1.584,1.36,2.032,2.7,2.336,1.36.3,2.7.48,2.7,1.536,0,1.04-1.152,1.232-2,1.232-1.12,0-2.176-.384-2.224-1.6ZM98.448,34h1.44V24.5h.032l3.568,9.5h1.3l3.568-9.5h.032V34h1.44V22.576h-2.08l-3.616,9.6-3.6-9.6h-2.08Zm19.072-2.624a1.993,1.993,0,0,1-2.144,1.616,2.437,2.437,0,0,1-2.576-2.72h6.192c.08-2-.816-4.736-3.744-4.736a3.981,3.981,0,0,0-3.888,4.3c.08,2.528,1.328,4.352,3.968,4.352a3.335,3.335,0,0,0,3.536-2.816Zm-4.72-2.3a2.356,2.356,0,0,1,2.368-2.336,2.38,2.38,0,0,1,2.384,2.336ZM120.08,34h1.36V28.848a2.231,2.231,0,0,1,2.208-2.112c1.216,0,1.552.768,1.552,1.84V34h1.36V28.848a2,2,0,0,1,2.16-2.112c1.328,0,1.6.816,1.6,1.84V34h1.36V27.936c0-1.712-1.1-2.4-2.752-2.4a3.061,3.061,0,0,0-2.592,1.408,2.194,2.194,0,0,0-2.272-1.408,3.049,3.049,0,0,0-2.672,1.408h-.032V25.728h-1.28Zm19.776-4.208c0,1.616-.624,3.2-2.48,3.2-1.872,0-2.608-1.5-2.608-3.136,0-1.552.7-3.12,2.528-3.12C139.056,26.736,139.856,28.24,139.856,29.792ZM133.456,34h1.36V32.9h.032a3.168,3.168,0,0,0,2.672,1.3c2.528,0,3.776-1.968,3.776-4.3s-1.264-4.352-3.808-4.352a2.784,2.784,0,0,0-2.64,1.312h-.032V22.576h-1.36Zm14.832-2.624a1.993,1.993,0,0,1-2.144,1.616,2.437,2.437,0,0,1-2.576-2.72h6.192c.08-2-.816-4.736-3.744-4.736a3.981,3.981,0,0,0-3.888,4.3c.08,2.528,1.328,4.352,3.968,4.352a3.335,3.335,0,0,0,3.536-2.816Zm-4.72-2.3a2.356,2.356,0,0,1,2.368-2.336,2.38,2.38,0,0,1,2.384,2.336ZM150.8,34h1.36V30.32c0-2.1.8-3.344,2.992-3.344v-1.44a3.008,3.008,0,0,0-3.04,1.936h-.032V25.728H150.8Zm3.888,0h1.776V32.224h-1.776Z" transform="translate(1643.812 193)"/>
          <path id="Path_4696" data-name="Path 4696" class="cls-2" d="M1.326,0H2.941V-5.559H8.517v-1.36H2.941v-3.859H9.3v-1.36H1.326ZM12.869-6.545v-4.233h4.012a1.92,1.92,0,0,1,1.578.521A1.92,1.92,0,0,1,19.04-8.7c0,1.768-1.292,2.159-2.805,2.159ZM11.254,0h1.615V-5.185h3.944c1.564,0,1.853,1,2.023,2.193.238,1.19-.017,2.5.442,2.992h1.8c-.68-.833-.612-2.159-.714-3.349-.119-1.19-.408-2.227-1.819-2.5v-.034A2.911,2.911,0,0,0,20.653-8.96c0-1.938-1.411-3.179-3.689-3.179h-5.71ZM23.137,0h1.615V-12.138H23.137Zm4.5,0h8.432V-1.36H29.257v-4.2h6.307V-6.92H29.257v-3.859h6.766v-1.36H27.642Zm10.54,0h1.53V-9.741h.034L46.087,0h1.768V-12.138h-1.53V-2.3h-.034L39.9-12.138H38.182ZM50.643,0h4.165c4.046,0,5.831-2.3,5.831-6.358,0-3.91-2.091-5.78-5.831-5.78H50.643Zm1.615-10.778h2.72c2.975,0,4.046,1.751,4.046,4.641,0,4.471-2.975,4.777-4.08,4.777H52.258ZM71.332-8.585c-.1-2.669-1.989-3.842-4.471-3.842-2.21,0-4.4,1.088-4.4,3.553,0,2.227,1.955,2.788,3.893,3.213s3.876.714,3.876,2.38c0,1.751-1.615,2.21-3.077,2.21-1.836,0-3.536-.884-3.536-2.924h-1.53c0,2.958,2.3,4.284,5.015,4.284,2.21,0,4.743-1.037,4.743-3.621,0-2.38-1.938-3.06-3.876-3.5-1.955-.442-3.893-.663-3.893-2.159,0-1.581,1.36-2.074,2.72-2.074,1.666,0,2.822.748,3.009,2.482ZM84.524-2.516A3.054,3.054,0,0,1,81.94-1.071a2.2,2.2,0,0,1-2.312-2.057c0-1.445.969-2.091,2.108-2.737ZM86.615,0H88.5L86.139-2.737a6.87,6.87,0,0,0,.816-2.992H85.578a6.435,6.435,0,0,1-.391,1.887L82.994-6.511a3.832,3.832,0,0,0,2.278-3.145c0-1.649-1.428-2.482-2.941-2.482a2.516,2.516,0,0,0-1.918.649,2.516,2.516,0,0,0-.819,1.851c0,1.241.663,1.887,1.343,2.856C79.39-5.967,78.1-5.015,78.1-3.111,78.1-2.125,78.61.2,81.891.2a4.065,4.065,0,0,0,3.434-1.717Zm-4.4-7.463a4.009,4.009,0,0,1-1.173-2.108,1.291,1.291,0,0,1,.413-.952,1.291,1.291,0,0,1,.981-.34,1.3,1.3,0,0,1,.978.343,1.3,1.3,0,0,1,.416.949c0,1.02-.921,1.666-1.618,2.108ZM94.639,0h1.615V-5.559h5.576v-1.36H96.254v-3.859h6.358v-1.36H94.639Zm7.548,0h1.666l1.36-3.655h5.134L111.673,0h1.785l-4.743-12.138H106.93Zm5.593-10.676h.034l2.023,5.661h-4.114ZM114.852,0h1.53V-10.1h.034L120.207,0h1.377l3.791-10.1h.034V0h1.53V-12.138h-2.21l-3.842,10.2-3.825-10.2h-2.21Zm15.011,0h1.615V-12.138h-1.615Zm4.505,0h8.041V-1.36h-6.426V-12.138h-1.615Zm17.391-12.138h-1.836l-3.553,5.78-3.638-5.78h-1.921L145.5-4.964V0h1.615V-4.964Z" transform="translate(443.875 209)"/>
          <path id="Path_4695" data-name="Path 4695" class="cls-5" d="M0,0V51" transform="translate(614.875 183)"/>
          <path id="Path_4694" data-name="Path 4694" class="cls-5" d="M0,0V51" transform="translate(1615.875 183)"/>
        </g>
        <g id="Group_1945" data-name="Group 1945" transform="translate(11)">
          <g id="Group_1822" data-name="Group 1822" transform="translate(679.938 -92.086)">
            <g id="Exclusive_GGR_logo_STACKED" data-name="Exclusive GGR logo STACKED" transform="translate(88.593 269.95)">
              <g id="Group_1253" data-name="Group 1253">
                <path id="Path_3639" data-name="Path 3639" class="cls-2" d="M1.444,13.357h5.94V12.139H2.869V9.781h4.1V8.63h-4.1V6.521H7.3V5.3H1.444ZM12.207,9.183,9.322,13.357h1.63l2.064-3.08,2.029,3.08h1.733L13.894,9.183,16.585,5.3h-1.6L13.062,8.145,11.215,5.3h-1.7Zm13.921-1.32c-.171-1.737-1.619-2.741-3.455-2.752a3.909,3.909,0,0,0-3.9,4.219,3.909,3.909,0,0,0,3.9,4.219,3.32,3.32,0,0,0,3.466-3.26H24.748A2.084,2.084,0,0,1,22.673,12.4c-1.744,0-2.474-1.523-2.474-3.068s.73-3.068,2.474-3.068a1.941,1.941,0,0,1,2.029,1.6Zm2.907,5.493H34.6V12.139H30.461V5.3H29.035Zm8.049-2.9c0,2.064,1.334,3.091,3.341,3.091s3.341-1.026,3.341-3.091V5.3H42.341V10c0,1.083-.068,2.335-1.915,2.335S38.51,11.078,38.51,10V5.3H37.085Zm9.429.214c.034,2,1.539,2.876,3.4,2.876,1.619,0,3.238-.722,3.238-2.527a2.135,2.135,0,0,0-1.585-2.053c-.422-.124-2.223-.587-2.349-.62-.581-.158-.969-.474-.969-1.038,0-.812.832-1.049,1.494-1.049.981,0,1.687.384,1.756,1.421h1.425C52.921,6,51.5,5.111,49.8,5.111c-1.471,0-2.976.756-2.976,2.369a2.05,2.05,0,0,0,1.8,2.042c1.117.3,1.858.451,2.429.666a.958.958,0,0,1,.673.993c0,.609-.467,1.218-1.722,1.218-1.14,0-2.064-.485-2.064-1.726Zm9.475,2.685h1.425V5.3H55.988Zm6.556,0h1.585L66.911,5.3H65.463l-2.086,6.373h-.023L61.313,5.3H59.831Zm6.772,0h5.94V12.139H70.742V9.781h4.1V8.63h-4.1V6.521h4.435V5.3h-5.86Z" transform="translate(-1.444 -5.111)"/>
              </g>
            </g>
          </g>
          <g id="Group_1877" data-name="Group 1877" transform="translate(755.583 169.167)">
            <g id="Group_1277" data-name="Group 1277" class="cls-6" transform="translate(9.719 15.833)">
              <g id="Group_1276" data-name="Group 1276">
                <g id="Group_1275" data-name="Group 1275" class="cls-6">
                  <g id="Group_1256" data-name="Group 1256" class="cls-7" transform="translate(0 7.119)">
                    <g id="Group_1255" data-name="Group 1255">
                      <g id="Group_1254" data-name="Group 1254" class="cls-8">
                        <path id="Path_3641" data-name="Path 3641" class="cls-2" d="M56.315,31.915a12.849,12.849,0,0,1,3.552-17.82c.023-.015.047-.027.07-.042a12.851,12.851,0,0,0-7.072-2.121h0a12.829,12.829,0,0,0-9.995,4.785,12.831,12.831,0,0,0-19.988,0,12.862,12.862,0,1,0-2.861,18.75,7.223,7.223,0,0,1-7.132,6.609,7.129,7.129,0,0,1-5.521-2.7H.879A12.81,12.81,0,0,0,25.716,35.46a12.831,12.831,0,0,0,14.293.017v9.3h5.723V35.468a12.854,12.854,0,0,0,14.206.051,12.81,12.81,0,0,1-3.624-3.6" transform="translate(0 -11.918)"/>
                      </g>
                    </g>
                  </g>
                  <g id="Group_1259" data-name="Group 1259" class="cls-9" transform="translate(89.316 18.156)">
                    <g id="Group_1258" data-name="Group 1258">
                      <g id="Group_1257" data-name="Group 1257" class="cls-10">
                        <path id="Path_3642" data-name="Path 3642" class="cls-2" d="M151.136,30.393H149.52v1.776h1.631c.63,0,.972-.311.972-.907,0-.725-.47-.869-.987-.869" transform="translate(-149.519 -30.393)"/>
                      </g>
                    </g>
                  </g>
                  <g id="Group_1262" data-name="Group 1262" class="cls-9" transform="translate(110.945 18.323)">
                    <g id="Group_1261" data-name="Group 1261">
                      <g id="Group_1260" data-name="Group 1260" class="cls-11">
                        <path id="Path_3643" data-name="Path 3643" class="cls-2" d="M186.586,30.673l-.86,2.446h1.736l-.852-2.446Z" transform="translate(-185.726 -30.673)"/>
                      </g>
                    </g>
                  </g>
                  <g id="Group_1265" data-name="Group 1265" class="cls-9" transform="translate(54.994)">
                    <g id="Group_1264" data-name="Group 1264">
                      <g id="Group_1263" data-name="Group 1263" class="cls-12">
                        <path id="Path_3644" data-name="Path 3644" class="cls-2" d="M171.168,0V9.309a12.819,12.819,0,0,0-17.127,2.6,12.849,12.849,0,0,0-19.989,0,12.847,12.847,0,0,0-19.988,0A12.846,12.846,0,0,0,97,9.254l.072.044a12.857,12.857,0,0,1-.071,21.421,12.853,12.853,0,0,0,14.2-.051,7.224,7.224,0,0,1-7.132,6.609,7.132,7.132,0,0,1-5.521-2.7H92.062a12.82,12.82,0,0,0,24.852-3.9,12.844,12.844,0,0,0,17.139-2.6,12.849,12.849,0,0,0,19.989,0A12.853,12.853,0,0,0,176.891,20V0ZM129.132,23.03a1.594,1.594,0,0,1-.151-.837c0-1.043-.215-1.5-1.131-1.5h-1.465V23.03h-1V17.343H128.1c1.242,0,1.88.574,1.88,1.538a1.381,1.381,0,0,1-.94,1.434v.016c.342.047.845.3.845,1.2a2.6,2.6,0,0,0,.31,1.5Zm7.184,0h-4.15V17.343h4.094V18.2h-3.1v1.489h2.868V20.5h-2.867V22.17h3.154Zm7.333,0h-1.011L141.5,18.681h-.016L140.32,23.03h-1.026l-1.5-5.687H138.8l1.026,4.349h.016L141,17.344h1.019l1.115,4.349h.016l1.06-4.349h1.012Zm6.9,0-.534-1.506h-2.269l-.533,1.506h-1.028l2.182-5.687h1.059l2.191,5.687Zm6.522,0a1.588,1.588,0,0,1-.151-.837c0-1.043-.215-1.5-1.131-1.5H154.32V23.03h-1V17.343h2.716c1.243,0,1.88.574,1.88,1.538a1.381,1.381,0,0,1-.939,1.434v.016c.342.047.844.3.844,1.2a2.589,2.589,0,0,0,.311,1.5Zm5.391,0H160.1V17.344h2.358c1.751,0,2.509,1.275,2.509,2.843s-.757,2.843-2.509,2.843m6.593.136c-1.3,0-2.349-.622-2.373-2.031h1c0,.876.646,1.218,1.442,1.218.876,0,1.2-.429,1.2-.86a.674.674,0,0,0-.469-.7c-.4-.152-.916-.255-1.7-.47a1.443,1.443,0,0,1-1.259-1.441c0-1.139,1.053-1.673,2.079-1.673,1.187,0,2.182.629,2.182,1.816h-1c-.048-.734-.542-1-1.227-1-.462,0-1.044.167-1.044.741,0,.4.271.621.677.733.087.023,1.346.351,1.641.438a1.5,1.5,0,0,1,1.107,1.449c0,1.275-1.131,1.784-2.262,1.784" transform="translate(-92.062)"/>
                      </g>
                    </g>
                  </g>
                  <g id="Group_1268" data-name="Group 1268" class="cls-9" transform="translate(124.029 18.156)">
                    <g id="Group_1267" data-name="Group 1267">
                      <g id="Group_1266" data-name="Group 1266" class="cls-13">
                        <path id="Path_3645" data-name="Path 3645" class="cls-2" d="M208.609,30.393h-.98v4.063h.98c1.561,0,1.9-.892,1.9-2.031s-.335-2.032-1.9-2.032" transform="translate(-207.629 -30.393)"/>
                      </g>
                    </g>
                  </g>
                  <g id="Group_1271" data-name="Group 1271" class="cls-9" transform="translate(117.251 18.156)">
                    <g id="Group_1270" data-name="Group 1270">
                      <g id="Group_1269" data-name="Group 1269" class="cls-10">
                        <path id="Path_3646" data-name="Path 3646" class="cls-2" d="M197.9,30.393h-1.616v1.776h1.633c.629,0,.971-.311.971-.907,0-.725-.469-.869-.987-.869" transform="translate(-196.283 -30.393)"/>
                      </g>
                    </g>
                  </g>
                  <g id="Group_1274" data-name="Group 1274" class="cls-14" transform="translate(54.151 9.254)">
                    <g id="Group_1273" data-name="Group 1273">
                      <g id="Group_1272" data-name="Group 1272" class="cls-15">
                        <path id="Path_3647" data-name="Path 3647" class="cls-2" d="M100.056,33.36A12.85,12.85,0,0,0,96.51,15.537c-.023-.016-.048-.029-.072-.045-.023.015-.047.027-.069.042a12.855,12.855,0,0,0,.071,21.424,12.8,12.8,0,0,0,3.617-3.6" transform="translate(-90.651 -15.492)"/>
                      </g>
                    </g>
                  </g>
                </g>
              </g>
            </g>
          </g>
        </g>
        <g id="Group_2083" data-name="Group 2083" transform="translate(67)">
          <g id="ARROW_UNGROUP_COMPONENT_TO_ADJUST_SCALE_" data-name="ARROW (UNGROUP COMPONENT TO ADJUST/SCALE)" transform="translate(1676.772 198)">
            <g id="WHITE">
              <path id="ARROW_BODY" data-name="ARROW BODY" class="cls-16" d="M112,35.617h16.476" transform="translate(-112 -29.115)"/>
              <path id="ARROW_HEAD" data-name="ARROW HEAD" class="cls-16" d="M-.161-10.349,6.011-16.66-.361-23.166" transform="translate(10.571 23.166)"/>
            </g>
          </g>
          <path id="Path_4693" data-name="Path 4693" class="cls-2" d="M8.3-12.852H6.048v8.838c0,1.6-.342,2.484-1.8,2.484-1.368,0-1.764-.846-1.764-2.3V-4.5H.234v.684C.234-1.476,1.35.306,4.068.306,7.758.306,8.3-1.908,8.3-4.14Zm7.848-.306c-3.852,0-6.156,3.06-6.156,6.732S12.294.306,16.146.306,22.3-2.754,22.3-6.426s-2.3-6.732-6.154-6.732Zm0,1.836c2.754,0,3.906,2.43,3.906,4.9s-1.152,4.9-3.906,4.9-3.906-2.43-3.906-4.9,1.15-4.9,3.9-4.9ZM23.994,0h2.25V-12.852h-2.25Zm4.554,0H30.69V-9.45h.054L36.594,0H38.97V-12.852H36.828v9.468h-.036l-5.868-9.468H28.548Zm17.28,0H47.97V-9.45h.054L53.874,0H56.25V-12.852H54.108v9.468h-.036L48.2-12.852H45.828Zm18.2-13.158c-3.852,0-6.156,3.06-6.156,6.732S60.174.306,64.026.306s6.156-3.06,6.156-6.732-2.3-6.732-6.156-6.732Zm0,1.836c2.754,0,3.906,2.43,3.906,4.9s-1.152,4.9-3.906,4.9-3.906-2.43-3.906-4.9,1.15-4.9,3.9-4.9ZM74,0h2.32l2.628-9.828h.036L81.558,0h2.286L87.39-12.852H85.1L82.71-3.024h-.036l-2.52-9.828h-2.3l-2.6,9.828h-.036L72.9-12.852H70.614Z" transform="translate(1576.772 211)"/>
        </g>
        <path id="W15_22_SP1_GOL_OF_COLOR_CRUSH_2_056_WB_copy-2" data-name="W15_22_SP1_GOL_OF_COLOR_CRUSH_2_056_WB copy" class="cls-17" d="M0,0H1920V90H0Z" transform="translate(0 158)"/>
      </g>
    </g>
  </g>
</svg>
