<svg width="48" height="48" viewBox="0 0 48 48" xmlns="http://www.w3.org/2000/svg">
    <path d="M41.495 14.9c.027.388.027.776.027 1.168 0 11.928-9.08 25.685-25.685 25.685v-.007A25.556 25.556 0 0 1 2 37.699a18.127 18.127 0 0 0 13.36-3.741 9.039 9.039 0 0 1-8.434-6.27 8.998 8.998 0 0 0 4.076-.155 9.028 9.028 0 0 1-7.241-8.848v-.115a8.97 8.97 0 0 0 4.097 1.13A9.038 9.038 0 0 1 5.064 7.647a25.621 25.621 0 0 0 18.604 9.43 9.033 9.033 0 0 1 2.612-8.624c3.636-3.418 9.354-3.243 12.772.391a18.114 18.114 0 0 0 5.732-2.191 9.06 9.06 0 0 1-3.968 4.992c1.79-.21 3.538-.69 5.184-1.42a18.339 18.339 0 0 1-4.505 4.676z" fill="#000" fill-rule="nonzero"/>
</svg>
