<svg width="48" height="48" viewBox="0 0 48 48" xmlns="http://www.w3.org/2000/svg" xmlns:xlink="http://www.w3.org/1999/xlink">
    <defs>
        <path id="gl5mcf6iha" d="M0 0h44v42.914H0z"/>
    </defs>
    <g fill="none" fill-rule="evenodd">
        <g transform="translate(2 3)">
            <mask id="v5k4wek7eb" fill="#fff">
                <use xlink:href="#gl5mcf6iha"/>
            </mask>
            <path d="M22 0C9.851 0 0 9.85 0 22c0 9.72 6.304 17.967 15.045 20.876 1.1.203 1.503-.478 1.503-1.059 0-.524-.02-2.257-.03-4.096-6.12 1.331-7.412-2.595-7.412-2.595-1-2.543-2.442-3.22-2.442-3.22-1.997-1.365.15-1.337.15-1.337 2.21.155 3.372 2.268 3.372 2.268 1.963 3.363 5.147 2.39 6.403 1.828.197-1.422.767-2.392 1.396-2.942C13.1 31.167 7.962 29.28 7.962 20.851c0-2.402.86-4.365 2.267-5.906-.229-.554-.982-2.791.213-5.822 0 0 1.848-.59 6.051 2.256a21.103 21.103 0 0 1 5.507-.74c1.87.008 3.753.252 5.511.74 4.2-2.847 6.044-2.256 6.044-2.256 1.198 3.03.445 5.268.216 5.822 1.411 1.541 2.264 3.504 2.264 5.906 0 8.45-5.146 10.31-10.045 10.855.789.682 1.492 2.021 1.492 4.074 0 2.943-.025 5.313-.025 6.037 0 .586.396 1.272 1.51 1.056C37.706 39.961 44 31.717 44 22 44 9.85 34.15 0 22 0" fill="#000" mask="url(#v5k4wek7eb)"/>
        </g>
        <path d="M10.333 34.587c-.049.11-.22.142-.377.067-.16-.072-.25-.22-.198-.33.047-.113.22-.144.379-.069.16.072.25.222.196.332M11.224 35.581c-.105.097-.31.052-.45-.102-.144-.153-.17-.358-.064-.457.108-.097.307-.052.451.102.144.155.173.358.063.457M12.091 36.848c-.135.094-.355.006-.492-.19-.134-.195-.134-.43.004-.524.136-.094.353-.01.492.185.134.199.134.433-.004.529M13.28 38.072c-.121.133-.378.097-.566-.084-.192-.177-.246-.43-.125-.562.122-.133.38-.096.57.084.19.177.25.43.12.562M14.919 38.783c-.053.172-.3.25-.55.177-.249-.075-.411-.277-.361-.451.052-.174.3-.255.551-.177.248.075.412.276.36.451M16.72 38.915c.006.181-.206.332-.467.335-.263.006-.476-.141-.48-.32 0-.183.208-.332.47-.336.262-.005.477.14.477.32M18.395 38.63c.031.176-.15.358-.41.407-.256.047-.492-.063-.525-.238-.031-.182.153-.364.409-.41.26-.046.493.06.526.24" fill="#000" fill-rule="nonzero"/>
    </g>
</svg>
