<svg width="48" height="48" viewBox="0 0 48 48" xmlns="http://www.w3.org/2000/svg">
    <path d="M20.083 5.313 25.058 3l7.072 13.807-4.769 2.347c-.94 2.203 3.778 11.005 5.77 11.15.157-.101 4.675-2.324 4.675-2.324L45 41.863s-4.837 2.37-4.995 2.443C26.248 50.588 6.58 12.353 20.083 5.313zm3.376 2.23-1.79.882c-9.263 4.833 7.31 37.072 16.883 32.7l1.7-.83-3.973-7.67-1.796.875c-5.535 2.707-14.458-14.383-8.846-17.391l1.763-.87-3.941-7.696zM22.13 39.71c-2.579 2.524-6.849 2.99-8.056.914-.823-1.416-.545-3.024-.223-4.888.352-2.031.751-4.336-.516-6.492-2.133-3.635-6.82-3.47-10.335-1.174l1.673 2.56c1.45-.949 3.122-1.356 4.363-1.066 2.892.68 2.014 4.42 1.802 5.65-.371 2.141-.787 4.568.59 6.945 2.329 4.014 8.844 3.582 12.757-.16a36.281 36.281 0 0 1-2.055-2.289z" fill="#000" fill-rule="nonzero"/>
</svg>
