<svg width="939.661" height="120" xmlns="http://www.w3.org/2000/svg">
    <g fill="#FFF" fill-rule="evenodd">
        <path d="M51.685 95.085c23.787 0 43.071-19.35 43.071-43.22 0-23.87-19.284-43.22-43.071-43.22S8.614 27.994 8.614 51.864c0 23.87 19.283 43.22 43.071 43.22zM64.606 0v9.734c-13.042 9.415-21.535 24.777-21.535 42.13s8.493 32.715 21.535 42.13v9.734H0V0h64.606zm30.15 0c28.545 0 51.685 23.22 51.685 51.864s-23.14 51.864-51.685 51.864a51.33 51.33 0 0 1-30.15-9.734V9.734A51.33 51.33 0 0 1 94.756 0zM194.906 93.23l8.033-25.617h30.346l7.905 25.617h11.22L224.232 9.207h-11.985L184.068 93.23h10.838zm35.701-34.199h-24.991l3.953-12.808 4.208-14.025 4.08-14.28h.51l4.08 14.28 4.208 14.025 3.953 12.808h-.001zm77.65 35.736c3.4 0 6.333-.363 8.798-1.089a130.93 130.93 0 0 0 7.905-2.626l-2.678-7.94c-4.42 1.963-8.33 2.945-11.73 2.945-3.74 0-6.694-1.003-8.862-3.01-2.168-2.007-3.251-5.316-3.251-9.927V2.034h-31.621v8.582h21.166v61.737c0 7.43 1.721 13.022 5.164 16.78 3.443 3.756 8.479 5.635 15.109 5.635zm68.853 0a34.763 34.763 0 0 0 13.197-2.562 38.47 38.47 0 0 0 11.412-7.173l-4.59-6.788a39.543 39.543 0 0 1-8.734 5.572c-3.188 1.495-6.694 2.241-10.519 2.241-3.57 0-6.822-.576-9.754-1.729-2.932-1.153-5.44-2.775-7.523-4.867-2.083-2.092-3.698-4.59-4.845-7.493-1.147-2.903-1.721-6.148-1.721-9.734 0-3.586.595-6.853 1.785-9.798 1.19-2.945 2.826-5.486 4.909-7.62 2.083-2.136 4.611-3.78 7.587-4.932 2.976-1.152 6.248-1.729 9.818-1.729 3.23 0 6.226.64 8.989 1.921 2.763 1.281 5.419 3.031 7.969 5.251l5.228-6.788c-2.55-2.476-5.674-4.61-9.372-6.404-3.698-1.793-8.097-2.69-13.197-2.69-4.675 0-9.117.726-13.324 2.177-4.207 1.451-7.884 3.586-11.029 6.404-3.145 2.818-5.631 6.255-7.459 10.311-1.828 4.056-2.741 8.688-2.741 13.897 0 5.123.85 9.713 2.55 13.77 1.7 4.055 4.08 7.471 7.14 10.246 3.06 2.775 6.651 4.89 10.774 6.34 4.123 1.451 8.607 2.177 13.452 2.177h-.002zm54.7-1.537V49.81c1.785-1.879 3.485-3.522 5.1-4.93 1.615-1.41 3.188-2.584 4.718-3.523 1.53-.939 3.081-1.644 4.654-2.113 1.573-.469 3.294-.704 5.164-.704 5.1 0 8.755 1.43 10.965 4.291 2.21 2.861 3.315 7.237 3.315 13.13v37.27h10.455V54.548c0-8.283-1.721-14.538-5.164-18.764-3.443-4.226-8.862-6.34-16.257-6.34-4.845 0-9.138 1.153-12.878 3.458s-7.268 5.21-10.583 8.71l.51-14.73V2.034h-10.455V93.23h10.456zm96.266 1.537c5.015 0 9.478-.726 13.388-2.177 3.91-1.45 7.395-3.159 10.455-5.123l-3.698-6.917c-2.89 1.793-5.844 3.202-8.862 4.227-3.018 1.025-6.354 1.537-10.009 1.537-3.4 0-6.524-.512-9.372-1.537s-5.313-2.476-7.395-4.355c-2.082-1.879-3.74-4.14-4.973-6.788-1.233-2.647-1.891-5.636-1.976-8.966h48.452c.17-.769.276-1.686.319-2.754.043-1.068.064-2.156.064-3.266 0-4.355-.638-8.326-1.913-11.912-1.275-3.586-3.124-6.66-5.546-9.222-2.422-2.562-5.376-4.547-8.862-5.956-3.486-1.409-7.438-2.113-11.858-2.113-3.995 0-7.884.747-11.667 2.241a30.66 30.66 0 0 0-10.073 6.468c-2.933 2.818-5.291 6.255-7.077 10.311-1.786 4.056-2.678 8.646-2.678 13.77 0 5.122.871 9.691 2.614 13.704 1.743 4.013 4.123 7.408 7.14 10.183 3.017 2.775 6.545 4.91 10.583 6.404 4.038 1.494 8.352 2.241 12.942 2.241h.002zm16.703-37.657h-39.271c.425-3.074 1.275-5.807 2.55-8.197 1.275-2.39 2.848-4.419 4.718-6.084a19.451 19.451 0 0 1 6.311-3.779 21.203 21.203 0 0 1 7.332-1.281c5.78 0 10.285 1.665 13.516 4.995s4.845 8.112 4.845 14.345l-.001.001zm35.446 36.12V48.144c1.615-3.245 3.188-5.657 4.718-7.237 1.53-1.58 3.4-2.37 5.61-2.37 4.675 0 7.013 3.672 7.013 11.015V93.23h8.415V48.144c1.615-3.245 3.23-5.657 4.845-7.237 1.615-1.58 3.528-2.37 5.738-2.37 4.505 0 6.758 3.672 6.758 11.015V93.23h10.073V48.657c0-6.233-1.169-10.994-3.506-14.28-2.337-3.288-5.674-4.932-10.009-4.932-3.485 0-6.333.982-8.543 2.946-2.21 1.964-4.25 4.568-6.12 7.813-1.53-7.173-5.44-10.759-11.73-10.759-3.57 0-6.396.897-8.479 2.69-2.083 1.793-3.889 4.141-5.419 7.045h-.383l-.893-8.197h-8.16V93.23h10.073-.001zM655.708 120c3.485 0 6.609-.555 9.372-1.665 2.763-1.11 5.206-2.626 7.332-4.547 2.126-1.92 3.953-4.205 5.483-6.853 1.53-2.648 2.89-5.508 4.08-8.582l27.286-67.373h-9.945L685.8 65.435l-3.251 8.902-3.379 9.158h-.51l-3.889-9.222-3.761-8.838-15.173-34.455h-10.583l28.944 62.377-1.913 4.611c-1.53 3.843-3.655 7.023-6.375 9.542-2.72 2.52-6.248 3.78-10.583 3.78-.935 0-1.891-.086-2.869-.257a23.608 23.608 0 0 1-2.741-.64l-2.168 8.326c2.38.854 5.1 1.281 8.16 1.281h-.001zm80.456-26.77V49.297a151.44 151.44 0 0 0-.574-13.129 275.51 275.51 0 0 1-.829-13.129h.255l8.415 17.163L770.59 93.23h10.838V9.207h-10.073v43.55c0 4.44.191 8.944.574 13.512.383 4.568.659 8.945.829 13.13h-.255l-8.415-17.164-27.159-53.027h-10.838V93.23h10.073zm83.643 0V55.573h34.299v-8.966h-34.299V18.173h40.547V9.207h-51.129V93.23h10.583-.001zm92.313 0V18.173h27.541V9.207h-65.792v8.966h27.541V93.23h10.71z"/>
    </g>
</svg>
